<?xml version="1.0" encoding="utf-8"?>
<!-- Generator: Adobe Illustrator 23.0.4, SVG Export Plug-In . SVG Version: 6.00 Build 0)  -->
<svg version="1.1" id="Layer_1" xmlns="http://www.w3.org/2000/svg" xmlns:xlink="http://www.w3.org/1999/xlink" x="0px" y="0px"
	 viewBox="0 0 69.4 133.6" style="enable-background:new 0 0 69.4 133.6;" xml:space="preserve">
<style type="text/css">
	.st0{fill:url(#SVGID_1_);}
	.st1{fill:none;stroke:#FFFFFF;stroke-width:0.75;stroke-miterlimit:10;}
	.st2{fill:url(#SVGID_2_);}
	.st3{fill:url(#SVGID_3_);}
</style>
<g>
	<g>
		
			<linearGradient id="SVGID_1_" gradientUnits="userSpaceOnUse" x1="534.6724" y1="-22.8165" x2="546.5928" y2="-22.8165" gradientTransform="matrix(-1.7975 -1.354714e-02 -7.536375e-03 1 1005.6162 94.1652)">
			<stop  offset="0" style="stop-color:#1AA90D"/>
			<stop  offset="0.9987" style="stop-color:#36E52A"/>
		</linearGradient>
		<polyline class="st0" points="44.2,128.1 22.8,128 34.5,0 		"/>
		<path class="st1" d="M43.6,117.9c0,0-3.3,3.8-7.7,1.9s-8.4-2.3-12.3-0.5"/>
		<path class="st1" d="M42.7,107.3c0,0-3,3.4-7,1.7c-4-1.7-7.6-2.1-11.1-0.4"/>
		<path class="st1" d="M41.9,96.2c0,0-2.7,3.5-6.3,1.9c-3.6-1.6-6.8-1.9-10-0.2"/>
		<path class="st1" d="M41.1,86.6c0,0-2.5,3-5.7,1.5s-6.2-1.7-9.1-0.3"/>
		<path class="st1" d="M40.4,77.7c0,0-2.1,2.3-5.1,1.1c-2.9-1.2-5.6-1.5-8.1-0.4"/>
		<path class="st1" d="M39.6,69c0,0-1.9,2.3-4.4,1.2s-4.8-1.4-7-0.2"/>
		<path class="st1" d="M39,60.4c0,0-1.8,2.4-4,1.3c-2.3-1.1-4.3-1.2-6.3,0"/>
		<path class="st1" d="M38.5,53c0,0-1.6,2.4-3.5,1.4c-1.9-1-3.7-1.1-5.5,0.1"/>
		<path class="st1" d="M37.9,45.6c0,0-1.5,2.4-3.1,1.5c-1.7-0.9-3.2-1-4.8,0.3"/>
		<path class="st1" d="M37.1,38.1c0,0-1.3,2.5-2.5,1.6c-1.2-0.9-2.4-0.9-3.8,0.5"/>
		<path class="st1" d="M36.8,30.9c0,0-1.1,2.5-2.1,1.7c-1-0.8-1.9-0.7-3.1,0.7"/>
	</g>
	<g>
		
			<linearGradient id="SVGID_2_" gradientUnits="userSpaceOnUse" x1="445.3409" y1="-47.5227" x2="457.2613" y2="-47.5227" gradientTransform="matrix(-1.7607 0.3621 0.2015 0.9795 817.0969 -48.1974)">
			<stop  offset="0" style="stop-color:#1AA90D"/>
			<stop  offset="0.9987" style="stop-color:#36E52A"/>
		</linearGradient>
		<polyline class="st2" points="36.3,129.2 15.3,133.6 0,6 		"/>
		<path class="st1" d="M33.5,119.4c0,0-2.4,4.4-7.1,3.4c-4.7-0.9-8.7-0.5-12.1,2.1"/>
		<path class="st1" d="M30.5,109.2c0,0-2.2,4-6.5,3.1s-7.9-0.5-10.9,1.9"/>
		<path class="st1" d="M27.4,98.5c0,0-1.9,4-5.8,3.1s-7-0.5-9.8,1.9"/>
		<path class="st1" d="M24.6,89.3c0,0-1.8,3.4-5.3,2.7s-6.4-0.4-8.9,1.6"/>
		<path class="st1" d="M22.1,80.7c0,0-1.6,2.7-4.7,2.1c-3.1-0.6-5.8-0.3-8,1.3"/>
		<path class="st1" d="M19.4,72.4c0,0-1.4,2.7-4.1,2.1c-2.7-0.6-5-0.3-6.9,1.3"/>
		<path class="st1" d="M17,64.1c0,0-1.2,2.7-3.7,2.1s-4.5-0.3-6.2,1.3"/>
		<path class="st1" d="M15,56.9c0,0-1.1,2.7-3.2,2.1S8,58.7,6.5,60.3"/>
		<path class="st1" d="M12.9,49.8c0,0-0.9,2.7-2.8,2.1c-1.8-0.6-3.4-0.3-4.7,1.3"/>
		<path class="st1" d="M10.5,42.7c0,0-0.7,2.7-2.1,2.1s-2.6-0.3-3.6,1.3"/>
		<path class="st1" d="M8.7,35.7c0,0-0.6,2.7-1.7,2.1S5,37.5,4.2,39.1"/>
	</g>
	<g>
		
			<linearGradient id="SVGID_3_" gradientUnits="userSpaceOnUse" x1="247.9253" y1="25.1317" x2="259.8457" y2="25.1317" gradientTransform="matrix(1.7607 0.3621 -0.2015 0.9795 -385.4348 -48.1974)">
			<stop  offset="0" style="stop-color:#1AA90D"/>
			<stop  offset="0.9987" style="stop-color:#36E52A"/>
		</linearGradient>
		<polyline class="st3" points="33.1,128.9 54.1,133.2 69.4,5.6 		"/>
		<path class="st1" d="M35.9,119.1c0,0,2.4,4.4,7.1,3.4s8.7-0.5,12.1,2.1"/>
		<path class="st1" d="M38.9,108.9c0,0,2.2,4,6.5,3.1c4.3-0.9,7.9-0.5,10.9,1.9"/>
		<path class="st1" d="M42.1,98.2c0,0,1.9,4,5.8,3.1s7-0.5,9.8,1.9"/>
		<path class="st1" d="M44.8,89c0,0,1.8,3.4,5.3,2.7c3.5-0.7,6.4-0.4,8.9,1.6"/>
		<path class="st1" d="M47.4,80.4c0,0,1.6,2.7,4.7,2.1c3.1-0.6,5.8-0.3,8,1.3"/>
		<path class="st1" d="M50,72.1c0,0,1.4,2.7,4.1,2.1c2.7-0.6,5-0.3,6.9,1.3"/>
		<path class="st1" d="M52.4,63.7c0,0,1.2,2.7,3.7,2.1c2.4-0.6,4.5-0.3,6.2,1.3"/>
		<path class="st1" d="M54.4,56.6c0,0,1.1,2.7,3.2,2.1c2.1-0.6,3.9-0.3,5.4,1.3"/>
		<path class="st1" d="M56.5,49.5c0,0,0.9,2.7,2.8,2.1c1.8-0.6,3.4-0.3,4.7,1.3"/>
		<path class="st1" d="M58.9,42.3c0,0,0.7,2.7,2.1,2.1c1.4-0.6,2.6-0.3,3.6,1.3"/>
		<path class="st1" d="M60.7,35.4c0,0,0.6,2.7,1.7,2.1c1.1-0.6,2.1-0.3,2.9,1.3"/>
	</g>
</g>
</svg>
