<?xml version="1.0" encoding="utf-8"?>
<!-- Generator: Adobe Illustrator 23.0.4, SVG Export Plug-In . SVG Version: 6.00 Build 0)  -->
<svg version="1.1" id="Layer_1" xmlns="http://www.w3.org/2000/svg" xmlns:xlink="http://www.w3.org/1999/xlink" x="0px" y="0px"
	 viewBox="0 0 85.7 167.1" style="enable-background:new 0 0 85.7 167.1;" xml:space="preserve">
<style type="text/css">
	.st0{fill:url(#SVGID_1_);}
	.st1{fill:url(#SVGID_2_);}
	.st2{fill:url(#SVGID_3_);}
	.st3{fill:url(#SVGID_4_);}
	.st4{fill:url(#SVGID_5_);}
	.st5{fill:url(#SVGID_6_);}
	.st6{fill:url(#SVGID_7_);}
	.st7{fill:url(#SVGID_8_);}
	.st8{fill:url(#SVGID_9_);}
	.st9{fill:url(#SVGID_10_);}
	.st10{fill:url(#SVGID_11_);}
	.st11{fill:url(#SVGID_12_);}
	.st12{fill:url(#SVGID_13_);}
	.st13{fill:url(#SVGID_14_);}
	.st14{fill:url(#SVGID_15_);}
	.st15{fill:url(#SVGID_16_);}
	.st16{fill:url(#SVGID_17_);}
	.st17{fill:url(#SVGID_18_);}
	.st18{fill:url(#SVGID_19_);}
</style>
<g>
	
		<linearGradient id="SVGID_1_" gradientUnits="userSpaceOnUse" x1="40.3772" y1="-33.4722" x2="64.2414" y2="-33.4722" gradientTransform="matrix(0.1621 0.3158 -0.5347 0.2745 37.0676 124.1001)">
		<stop  offset="0" style="stop-color:#1AA90D"/>
		<stop  offset="0.9987" style="stop-color:#36E52A"/>
	</linearGradient>
	<path class="st0" d="M65.4,135.2c-9.5,4.9-18.6,7.6-24.2,7.7c3.3-4.6,10.9-10.3,20.4-15.2s18.6-7.6,24.2-7.7
		C82.4,124.5,74.9,130.3,65.4,135.2z"/>
	
		<linearGradient id="SVGID_2_" gradientUnits="userSpaceOnUse" x1="11.6897" y1="-42.1699" x2="35.5539" y2="-42.1699" gradientTransform="matrix(0.1621 0.3158 -0.5347 0.2745 37.0676 124.1001)">
		<stop  offset="0" style="stop-color:#1AA90D"/>
		<stop  offset="0.9987" style="stop-color:#36E52A"/>
	</linearGradient>
	<path class="st1" d="M65.4,123.8c-9.5,4.9-18.6,7.6-24.2,7.7c3.3-4.6,10.9-10.3,20.4-15.2s18.6-7.6,24.2-7.7
		C82.4,113.1,74.9,118.9,65.4,123.8z"/>
	
		<linearGradient id="SVGID_3_" gradientUnits="userSpaceOnUse" x1="-18.9855" y1="-51.4702" x2="4.8787" y2="-51.4702" gradientTransform="matrix(0.1621 0.3158 -0.5347 0.2745 37.0676 124.1001)">
		<stop  offset="0" style="stop-color:#1AA90D"/>
		<stop  offset="0.9987" style="stop-color:#36E52A"/>
	</linearGradient>
	<path class="st2" d="M65.4,111.5c-9.5,4.9-18.6,7.6-24.2,7.7c3.3-4.6,10.9-10.3,20.4-15.2s18.6-7.6,24.2-7.7
		C82.4,100.9,74.9,106.6,65.4,111.5z"/>
	
		<linearGradient id="SVGID_4_" gradientUnits="userSpaceOnUse" x1="-49.6608" y1="-60.7705" x2="-25.7966" y2="-60.7705" gradientTransform="matrix(0.1621 0.3158 -0.5347 0.2745 37.0676 124.1001)">
		<stop  offset="0" style="stop-color:#1AA90D"/>
		<stop  offset="0.9987" style="stop-color:#36E52A"/>
	</linearGradient>
	<path class="st3" d="M65.4,99.3c-9.5,4.9-18.6,7.6-24.2,7.7c3.3-4.6,10.9-10.3,20.4-15.2s18.6-7.6,24.2-7.7
		C82.4,88.6,74.9,94.4,65.4,99.3z"/>
	
		<linearGradient id="SVGID_5_" gradientUnits="userSpaceOnUse" x1="-82.3811" y1="-70.6909" x2="-58.5169" y2="-70.6909" gradientTransform="matrix(0.1621 0.3158 -0.5347 0.2745 37.0676 124.1001)">
		<stop  offset="0" style="stop-color:#1AA90D"/>
		<stop  offset="0.9987" style="stop-color:#36E52A"/>
	</linearGradient>
	<path class="st4" d="M65.4,86.2c-9.5,4.9-18.6,7.6-24.2,7.7c3.3-4.6,10.9-10.3,20.4-15.2s18.6-7.6,24.2-7.7
		C82.4,75.6,74.9,81.3,65.4,86.2z"/>
	
		<linearGradient id="SVGID_6_" gradientUnits="userSpaceOnUse" x1="-113.0564" y1="-79.9912" x2="-89.1922" y2="-79.9912" gradientTransform="matrix(0.1621 0.3158 -0.5347 0.2745 37.0676 124.1001)">
		<stop  offset="0" style="stop-color:#1AA90D"/>
		<stop  offset="0.9987" style="stop-color:#36E52A"/>
	</linearGradient>
	<path class="st5" d="M65.4,74c-9.5,4.9-18.6,7.6-24.2,7.7c3.3-4.6,10.9-10.3,20.4-15.2s18.6-7.6,24.2-7.7
		C82.4,63.3,74.9,69.1,65.4,74z"/>
	
		<linearGradient id="SVGID_7_" gradientUnits="userSpaceOnUse" x1="-143.7317" y1="-89.2916" x2="-119.8675" y2="-89.2916" gradientTransform="matrix(0.1621 0.3158 -0.5347 0.2745 37.0676 124.1001)">
		<stop  offset="0" style="stop-color:#1AA90D"/>
		<stop  offset="0.9987" style="stop-color:#36E52A"/>
	</linearGradient>
	<path class="st6" d="M65.4,61.7c-9.5,4.9-18.6,7.6-24.2,7.7c3.3-4.6,10.9-10.3,20.4-15.2s18.6-7.6,24.2-7.7
		C82.4,51.1,74.9,56.9,65.4,61.7z"/>
	
		<linearGradient id="SVGID_8_" gradientUnits="userSpaceOnUse" x1="-176.452" y1="-99.2119" x2="-152.5878" y2="-99.2119" gradientTransform="matrix(0.1621 0.3158 -0.5347 0.2745 37.0676 124.1001)">
		<stop  offset="0" style="stop-color:#1AA90D"/>
		<stop  offset="0.9987" style="stop-color:#36E52A"/>
	</linearGradient>
	<path class="st7" d="M65.4,48.7c-9.5,4.9-18.6,7.6-24.2,7.7C44.5,51.8,52,46,61.5,41.1s18.6-7.6,24.2-7.7
		C82.4,38,74.9,43.8,65.4,48.7z"/>
	
		<linearGradient id="SVGID_9_" gradientUnits="userSpaceOnUse" x1="-209.2271" y1="-106.097" x2="-185.3629" y2="-106.097" gradientTransform="matrix(0.1621 0.3158 -0.5347 0.2745 37.0676 124.1001)">
		<stop  offset="0" style="stop-color:#1AA90D"/>
		<stop  offset="0.9987" style="stop-color:#36E52A"/>
	</linearGradient>
	<path class="st8" d="M63.7,36.4c-9.5,4.9-18.6,7.6-24.2,7.7c3.3-4.6,10.9-10.3,20.4-15.2s18.6-7.6,24.2-7.7
		C80.8,25.8,73.2,31.6,63.7,36.4z"/>
	
		<linearGradient id="SVGID_10_" gradientUnits="userSpaceOnUse" x1="6.9187" y1="86.8081" x2="30.7829" y2="86.8081" gradientTransform="matrix(0.3485 6.728672e-02 -0.1139 0.5902 48.6328 -27.8951)">
		<stop  offset="0" style="stop-color:#1AA90D"/>
		<stop  offset="0.9987" style="stop-color:#36E52A"/>
	</linearGradient>
	<path class="st9" d="M49.5,25.4c-2,10.5-5.5,19.3-8.9,23.8c-1.5-5.4-1.4-14.9,0.6-25.4c2-10.5,5.5-19.3,8.9-23.8
		C51.6,5.4,51.5,14.9,49.5,25.4z"/>
	
		<linearGradient id="SVGID_11_" gradientUnits="userSpaceOnUse" x1="-282.0569" y1="318.319" x2="-258.1927" y2="318.319" gradientTransform="matrix(-0.1621 0.3158 0.5347 0.2745 -191.7197 124.1001)">
		<stop  offset="0" style="stop-color:#1AA90D"/>
		<stop  offset="0.9987" style="stop-color:#36E52A"/>
	</linearGradient>
	<path class="st10" d="M20.4,130c9.5,4.9,18.6,7.6,24.2,7.7c-3.3-4.6-10.9-10.3-20.4-15.2S5.7,114.8,0,114.7
		C3.3,119.3,10.9,125.1,20.4,130z"/>
	
		<linearGradient id="SVGID_12_" gradientUnits="userSpaceOnUse" x1="-314.7772" y1="308.3987" x2="-290.913" y2="308.3987" gradientTransform="matrix(-0.1621 0.3158 0.5347 0.2745 -191.7197 124.1001)">
		<stop  offset="0" style="stop-color:#1AA90D"/>
		<stop  offset="0.9987" style="stop-color:#36E52A"/>
	</linearGradient>
	<path class="st11" d="M20.4,116.9c9.5,4.9,18.6,7.6,24.2,7.7c-3.3-4.6-10.9-10.3-20.4-15.2c-9.5-4.9-18.6-7.6-24.2-7.7
		C3.3,106.3,10.9,112,20.4,116.9z"/>
	
		<linearGradient id="SVGID_13_" gradientUnits="userSpaceOnUse" x1="-345.4525" y1="299.0983" x2="-321.5883" y2="299.0983" gradientTransform="matrix(-0.1621 0.3158 0.5347 0.2745 -191.7197 124.1001)">
		<stop  offset="0" style="stop-color:#1AA90D"/>
		<stop  offset="0.9987" style="stop-color:#36E52A"/>
	</linearGradient>
	<path class="st12" d="M20.4,104.7c9.5,4.9,18.6,7.6,24.2,7.7c-3.3-4.6-10.9-10.3-20.4-15.2S5.7,89.5,0,89.4
		C3.3,94,10.9,99.8,20.4,104.7z"/>
	
		<linearGradient id="SVGID_14_" gradientUnits="userSpaceOnUse" x1="-376.1278" y1="289.798" x2="-352.2635" y2="289.798" gradientTransform="matrix(-0.1621 0.3158 0.5347 0.2745 -191.7197 124.1001)">
		<stop  offset="0" style="stop-color:#1AA90D"/>
		<stop  offset="0.9987" style="stop-color:#36E52A"/>
	</linearGradient>
	<path class="st13" d="M20.4,92.4c9.5,4.9,18.6,7.6,24.2,7.7c-3.3-4.6-10.9-10.3-20.4-15.2C14.7,80,5.7,77.3,0,77.2
		C3.3,81.8,10.9,87.5,20.4,92.4z"/>
	
		<linearGradient id="SVGID_15_" gradientUnits="userSpaceOnUse" x1="-408.8481" y1="279.8776" x2="-384.9839" y2="279.8776" gradientTransform="matrix(-0.1621 0.3158 0.5347 0.2745 -191.7197 124.1001)">
		<stop  offset="0" style="stop-color:#1AA90D"/>
		<stop  offset="0.9987" style="stop-color:#36E52A"/>
	</linearGradient>
	<path class="st14" d="M20.4,79.4c9.5,4.9,18.6,7.6,24.2,7.7c-3.3-4.6-10.9-10.3-20.4-15.2S5.7,64.2,0,64.2
		C3.3,68.7,10.9,74.5,20.4,79.4z"/>
	
		<linearGradient id="SVGID_16_" gradientUnits="userSpaceOnUse" x1="-437.4783" y1="271.1973" x2="-413.6141" y2="271.1973" gradientTransform="matrix(-0.1621 0.3158 0.5347 0.2745 -191.7197 124.1001)">
		<stop  offset="0" style="stop-color:#1AA90D"/>
		<stop  offset="0.9987" style="stop-color:#36E52A"/>
	</linearGradient>
	<path class="st15" d="M20.4,67.9c9.5,4.9,18.6,7.6,24.2,7.7c-3.3-4.6-10.9-10.3-20.4-15.2S5.7,52.8,0,52.7
		C3.3,57.3,10.9,63.1,20.4,67.9z"/>
	
		<linearGradient id="SVGID_17_" gradientUnits="userSpaceOnUse" x1="-472.2437" y1="260.6569" x2="-448.3794" y2="260.6569" gradientTransform="matrix(-0.1621 0.3158 0.5347 0.2745 -191.7197 124.1001)">
		<stop  offset="0" style="stop-color:#1AA90D"/>
		<stop  offset="0.9987" style="stop-color:#36E52A"/>
	</linearGradient>
	<path class="st16" d="M20.4,54.1c9.5,4.9,18.6,7.6,24.2,7.7c-3.3-4.6-10.9-10.3-20.4-15.2S5.7,38.9,0,38.9
		C3.3,43.4,10.9,49.2,20.4,54.1z"/>
	
		<linearGradient id="SVGID_18_" gradientUnits="userSpaceOnUse" x1="-502.9189" y1="251.3566" x2="-479.0547" y2="251.3566" gradientTransform="matrix(-0.1621 0.3158 0.5347 0.2745 -191.7197 124.1001)">
		<stop  offset="0" style="stop-color:#1AA90D"/>
		<stop  offset="0.9987" style="stop-color:#36E52A"/>
	</linearGradient>
	<path class="st17" d="M20.4,41.8c9.5,4.9,18.6,7.6,24.2,7.7c-3.3-4.6-10.9-10.3-20.4-15.2S5.7,26.7,0,26.6
		C3.3,31.2,10.9,37,20.4,41.8z"/>
	<linearGradient id="SVGID_19_" gradientUnits="userSpaceOnUse" x1="39.6054" y1="103.4865" x2="44.5915" y2="103.4865">
		<stop  offset="0" style="stop-color:#1AA90D"/>
		<stop  offset="0.9987" style="stop-color:#36E52A"/>
	</linearGradient>
	<path class="st18" d="M42.5,167.1h-0.9c-1.1,0-2.1-0.9-2.1-2.1V42c0-1.1,0.9-2.1,2.1-2.1h0.9c1.1,0,2.1,0.9,2.1,2.1v123
		C44.6,166.1,43.7,167.1,42.5,167.1z"/>
</g>
</svg>
