<?xml version="1.0" encoding="utf-8"?>
<!-- Generator: Adobe Illustrator 23.0.4, SVG Export Plug-In . SVG Version: 6.00 Build 0)  -->
<svg version="1.1" id="Layer_1" xmlns="http://www.w3.org/2000/svg" xmlns:xlink="http://www.w3.org/1999/xlink" x="0px" y="0px"
	 viewBox="0 0 116.8 164.6" style="enable-background:new 0 0 116.8 164.6;" xml:space="preserve">
<style type="text/css">
	.st0{fill:url(#SVGID_1_);}
	.st1{fill:url(#SVGID_2_);}
	.st2{fill:url(#SVGID_3_);}
	.st3{fill:url(#SVGID_4_);}
	.st4{fill:url(#SVGID_5_);}
	.st5{fill:url(#SVGID_6_);}
	.st6{fill:url(#SVGID_7_);}
	.st7{fill:url(#SVGID_8_);}
	.st8{fill:url(#SVGID_9_);}
	.st9{fill:url(#SVGID_10_);}
	.st10{fill:url(#SVGID_11_);}
	.st11{fill:url(#SVGID_12_);}
	.st12{fill:url(#SVGID_13_);}
	.st13{fill:url(#SVGID_14_);}
	.st14{fill:url(#SVGID_15_);}
	.st15{fill:url(#SVGID_16_);}
	.st16{fill:url(#SVGID_17_);}
	.st17{fill:url(#SVGID_18_);}
	.st18{fill:url(#SVGID_19_);}
	.st19{fill:url(#SVGID_20_);}
	.st20{fill:url(#SVGID_21_);}
	.st21{fill:url(#SVGID_22_);}
	.st22{fill:url(#SVGID_23_);}
	.st23{fill:url(#SVGID_24_);}
	.st24{fill:url(#SVGID_25_);}
	.st25{fill:url(#SVGID_26_);}
	.st26{fill:url(#SVGID_27_);}
	.st27{fill:url(#SVGID_28_);}
	.st28{fill:url(#SVGID_29_);}
	.st29{fill:url(#SVGID_30_);}
	.st30{fill:url(#SVGID_31_);}
	.st31{fill:url(#SVGID_32_);}
	.st32{fill:url(#SVGID_33_);}
	.st33{fill:url(#SVGID_34_);}
	.st34{fill:url(#SVGID_35_);}
	.st35{fill:url(#SVGID_36_);}
	.st36{fill:url(#SVGID_37_);}
	.st37{fill:url(#SVGID_38_);}
	.st38{fill:url(#SVGID_39_);}
	.st39{fill:url(#SVGID_40_);}
	.st40{fill:url(#SVGID_41_);}
	.st41{fill:url(#SVGID_42_);}
	.st42{fill:url(#SVGID_43_);}
	.st43{fill:url(#SVGID_44_);}
	.st44{fill:url(#SVGID_45_);}
	.st45{fill:url(#SVGID_46_);}
</style>
<g>
	
		<linearGradient id="SVGID_1_" gradientUnits="userSpaceOnUse" x1="-1129.9701" y1="1179.7036" x2="-1110.5518" y2="1179.7036" gradientTransform="matrix(-0.2027 0.3438 -0.4803 -0.2832 408.6126 876.1938)">
		<stop  offset="0" style="stop-color:#1AA90D"/>
		<stop  offset="0.9987" style="stop-color:#36E52A"/>
	</linearGradient>
	<path class="st0" d="M67.2,160.3c-5.4-3.2-9.4-7.4-10.8-11c3.7-0.5,9.3,1,14.7,4.3s9.4,7.4,10.8,11C78.2,165,72.7,163.5,67.2,160.3
		z"/>
	
		<linearGradient id="SVGID_2_" gradientUnits="userSpaceOnUse" x1="-1144.1378" y1="1193.5592" x2="-1124.7197" y2="1193.5592" gradientTransform="matrix(-0.2055 0.3422 -0.4662 -0.2799 397.5322 872.6848)">
		<stop  offset="0" style="stop-color:#1AA90D"/>
		<stop  offset="0.9987" style="stop-color:#36E52A"/>
	</linearGradient>
	<path class="st1" d="M72.2,153.8c-5.3-3.2-9.1-7.4-10.4-10.9c3.7-0.5,9.1,1,14.3,4.2c5.3,3.2,9.1,7.4,10.4,10.9
		C82.9,158.4,77.5,157,72.2,153.8z"/>
	
		<linearGradient id="SVGID_3_" gradientUnits="userSpaceOnUse" x1="-1176.129" y1="1145.015" x2="-1156.7091" y2="1145.015" gradientTransform="matrix(-0.1957 0.3479 -0.4621 -0.26 380.3962 847.0687)">
		<stop  offset="0" style="stop-color:#1AA90D"/>
		<stop  offset="0.9987" style="stop-color:#36E52A"/>
	</linearGradient>
	<path class="st2" d="M77.7,147c-5.2-2.9-9.1-6.9-10.4-10.3c3.6-0.6,8.9,0.6,14.2,3.5c5.2,2.9,9.1,6.9,10.4,10.3
		C88.2,151.2,82.9,150,77.7,147z"/>
	
		<linearGradient id="SVGID_4_" gradientUnits="userSpaceOnUse" x1="-1195.7882" y1="1144.6656" x2="-1176.3683" y2="1144.6656" gradientTransform="matrix(-0.1956 0.348 -0.4556 -0.2561 373.4571 841.6997)">
		<stop  offset="0" style="stop-color:#1AA90D"/>
		<stop  offset="0.9987" style="stop-color:#36E52A"/>
	</linearGradient>
	<path class="st3" d="M82.1,139.3c-5.2-2.9-8.9-6.8-10.3-10.2c3.6-0.7,8.8,0.5,14,3.4c5.2,2.9,8.9,6.8,10.3,10.2
		C92.5,143.4,87.2,142.2,82.1,139.3z"/>
	
		<linearGradient id="SVGID_5_" gradientUnits="userSpaceOnUse" x1="-1249.6127" y1="945.0959" x2="-1230.1644" y2="945.0959" gradientTransform="matrix(-0.1553 0.3677 -0.4386 -0.1852 309.4833 759.1927)">
		<stop  offset="0" style="stop-color:#1AA90D"/>
		<stop  offset="0.9987" style="stop-color:#36E52A"/>
	</linearGradient>
	<path class="st4" d="M86,131.8c-5.1-2-8.8-5.1-10.3-8.1c3.3-1.2,8.4-0.9,13.4,1c5.1,2,8.8,5.1,10.3,8.1C96.1,134,91,133.7,86,131.8
		z"/>
	
		<linearGradient id="SVGID_6_" gradientUnits="userSpaceOnUse" x1="-1273.6427" y1="809.104" x2="-1254.1693" y2="809.104" gradientTransform="matrix(-0.1316 0.3768 -0.4494 -0.157 289.9386 723.4144)">
		<stop  offset="0" style="stop-color:#1AA90D"/>
		<stop  offset="0.9987" style="stop-color:#36E52A"/>
	</linearGradient>
	<path class="st5" d="M91.3,123.7c-5.2-1.5-9.2-4.3-10.9-7.2c3.3-1.4,8.4-1.5,13.6,0c5.2,1.5,9.2,4.3,10.9,7.2
		C101.6,125.2,96.5,125.3,91.3,123.7z"/>
	
		<linearGradient id="SVGID_7_" gradientUnits="userSpaceOnUse" x1="-1293.1823" y1="887.9901" x2="-1273.7528" y2="887.9901" gradientTransform="matrix(-0.1466 0.3713 -0.3756 -0.1483 242.0768 719.465)">
		<stop  offset="0" style="stop-color:#1AA90D"/>
		<stop  offset="0.9987" style="stop-color:#36E52A"/>
	</linearGradient>
	<path class="st6" d="M95.2,114.8c-4.3-1.5-7.5-4.3-8.7-7.2c3-1.4,7.3-1.5,11.7,0c4.3,1.5,7.5,4.3,8.7,7.2
		C103.9,116.3,99.5,116.4,95.2,114.8z"/>
	
		<linearGradient id="SVGID_8_" gradientUnits="userSpaceOnUse" x1="-1311.8467" y1="711.5447" x2="-1292.4344" y2="711.5447" gradientTransform="matrix(-0.1206 0.3805 -0.3685 -0.1168 207.0161 682.0497)">
		<stop  offset="0" style="stop-color:#1AA90D"/>
		<stop  offset="0.9987" style="stop-color:#36E52A"/>
	</linearGradient>
	<path class="st7" d="M100.5,107.1c-4.3-1.1-7.5-3.5-8.8-6.2c2.8-1.6,7.1-2.1,11.4-1c4.3,1.1,7.5,3.5,8.8,6.2
		C109.1,107.7,104.8,108.2,100.5,107.1z"/>
	
		<linearGradient id="SVGID_9_" gradientUnits="userSpaceOnUse" x1="-2104.6978" y1="678.1433" x2="-2085.2795" y2="678.1433" gradientTransform="matrix(-9.068861e-02 0.2862 -0.2829 -8.963580e-02 106.6313 756.2401)">
		<stop  offset="0" style="stop-color:#1AA90D"/>
		<stop  offset="0.9987" style="stop-color:#36E52A"/>
	</linearGradient>
	<path class="st8" d="M103.8,98.6c-3.3-0.8-5.8-2.7-6.8-4.7c2.1-1.2,5.4-1.6,8.7-0.7c3.3,0.8,5.8,2.7,6.8,4.7
		C110.4,99.1,107.1,99.5,103.8,98.6z"/>
	
		<linearGradient id="SVGID_10_" gradientUnits="userSpaceOnUse" x1="-2446.468" y1="603.5824" x2="-2427.1206" y2="603.5824" gradientTransform="matrix(-8.229288e-02 0.2597 -0.1858 -5.887080e-02 19.9268 756.6118)">
		<stop  offset="0" style="stop-color:#1AA90D"/>
		<stop  offset="0.9987" style="stop-color:#36E52A"/>
	</linearGradient>
	<path class="st9" d="M107.4,90.7c-2.2-0.6-3.7-2-4.2-3.8c1.6-1.2,3.8-1.7,6-1.2s3.7,2,4.2,3.8C111.9,90.8,109.6,91.3,107.4,90.7z"
		/>
	
		<linearGradient id="SVGID_11_" gradientUnits="userSpaceOnUse" x1="-3220.1658" y1="549.7947" x2="-3200.8206" y2="549.7947" gradientTransform="matrix(-6.746542e-02 0.2129 -0.1501 -4.757981e-02 -21.4066 791.1434)">
		<stop  offset="0" style="stop-color:#1AA90D"/>
		<stop  offset="0.9987" style="stop-color:#36E52A"/>
	</linearGradient>
	<path class="st10" d="M111.9,83.5c-1.8-0.5-3-1.7-3.4-3.1c1.3-1,3.1-1.4,4.8-1s3,1.7,3.4,3.1C115.5,83.5,113.7,84,111.9,83.5z"/>
	
		<linearGradient id="SVGID_12_" gradientUnits="userSpaceOnUse" x1="-934.1569" y1="95.0036" x2="-914.5732" y2="95.0036" gradientTransform="matrix(-0.2829 0.2816 0.4017 0.4035 -251.393 361.5207)">
		<stop  offset="0" style="stop-color:#1AA90D"/>
		<stop  offset="0.9987" style="stop-color:#36E52A"/>
	</linearGradient>
	<path class="st11" d="M45.7,142.4c4.3,5,9.1,8.2,12.7,8.9c-0.5-4.1-3.3-9.6-7.7-14.6s-9.1-8.2-12.7-8.9
		C38.6,131.9,41.4,137.4,45.7,142.4z"/>
	
		<linearGradient id="SVGID_13_" gradientUnits="userSpaceOnUse" x1="-960.4561" y1="83.0149" x2="-940.9006" y2="83.0149" gradientTransform="matrix(-0.2806 0.2839 0.3961 0.3916 -246.8552 369.9516)">
		<stop  offset="0" style="stop-color:#1AA90D"/>
		<stop  offset="0.9987" style="stop-color:#36E52A"/>
	</linearGradient>
	<path class="st12" d="M50.3,135.5c4.3,4.8,9,7.9,12.6,8.5c-0.5-4-3.3-9.4-7.5-14.3c-4.3-4.8-9-7.9-12.6-8.5
		C43.3,125.2,46,130.6,50.3,135.5z"/>
	
		<linearGradient id="SVGID_14_" gradientUnits="userSpaceOnUse" x1="-948.5671" y1="16.0235" x2="-929.0087" y2="16.0235" gradientTransform="matrix(-0.2885 0.2758 0.3771 0.3946 -219.3903 377.8759)">
		<stop  offset="0" style="stop-color:#1AA90D"/>
		<stop  offset="0.9987" style="stop-color:#36E52A"/>
	</linearGradient>
	<path class="st13" d="M55,128.1c4.1,4.9,8.6,8.1,12.1,8.7c-0.4-4-2.9-9.4-6.9-14.3s-8.6-8.1-12.1-8.7
		C48.4,117.7,50.9,123.2,55,128.1z"/>
	
		<linearGradient id="SVGID_15_" gradientUnits="userSpaceOnUse" x1="-967.236" y1="-6.581466e-02" x2="-947.6913" y2="-6.581466e-02" gradientTransform="matrix(-0.2886 0.2757 0.3719 0.3894 -212.9674 382.7368)">
		<stop  offset="0" style="stop-color:#1AA90D"/>
		<stop  offset="0.9987" style="stop-color:#36E52A"/>
	</linearGradient>
	<path class="st14" d="M60.8,121.5c4,4.8,8.5,8,11.9,8.6c-0.4-4-2.8-9.3-6.8-14.2s-8.5-8-12-8.6C54.3,111.3,56.8,116.7,60.8,121.5z"
		/>
	
		<linearGradient id="SVGID_16_" gradientUnits="userSpaceOnUse" x1="-848.0161" y1="-323.2177" x2="-828.6073" y2="-323.2177" gradientTransform="matrix(-0.3178 0.2416 0.2881 0.379 -103.6659 438.4189)">
		<stop  offset="0" style="stop-color:#1AA90D"/>
		<stop  offset="0.9987" style="stop-color:#36E52A"/>
	</linearGradient>
	<path class="st15" d="M66.8,115.9c3,4.8,6.7,8,9.8,8.8c0.2-3.8-1.3-9-4.3-13.8c-3-4.8-6.7-8-9.8-8.8
		C62.3,105.9,63.8,111.1,66.8,115.9z"/>
	
		<linearGradient id="SVGID_17_" gradientUnits="userSpaceOnUse" x1="-776.075" y1="-436.6655" x2="-756.7098" y2="-436.6655" gradientTransform="matrix(-0.3325 0.2209 0.2634 0.3965 -64.1602 448.488)">
		<stop  offset="0" style="stop-color:#1AA90D"/>
		<stop  offset="0.9987" style="stop-color:#36E52A"/>
	</linearGradient>
	<path class="st16" d="M72.7,108.4c2.7,5.1,6.2,8.6,9.2,9.6c0.5-3.8-0.7-9.2-3.4-14.3c-2.7-5.1-6.2-8.6-9.2-9.6
		C68.9,97.9,70,103.3,72.7,108.4z"/>
	
		<linearGradient id="SVGID_18_" gradientUnits="userSpaceOnUse" x1="-897.9542" y1="-407.6969" x2="-878.6423" y2="-407.6969" gradientTransform="matrix(-0.3126 0.2482 0.2699 0.3399 -85.5161 457.8859)">
		<stop  offset="0" style="stop-color:#1AA90D"/>
		<stop  offset="0.9987" style="stop-color:#36E52A"/>
	</linearGradient>
	<path class="st17" d="M79.4,101.4c2.8,4.3,6.4,7,9.4,7.5c0.3-3.6-1.1-8.4-3.9-12.7s-6.4-7-9.4-7.5C75.2,92.3,76.6,97.1,79.4,101.4z
		"/>
	
		<linearGradient id="SVGID_19_" gradientUnits="userSpaceOnUse" x1="-769.4417" y1="-799.1804" x2="-750.4189" y2="-799.1804" gradientTransform="matrix(-0.3388 0.2111 0.2044 0.3279 -5.8834 514.8088)">
		<stop  offset="0" style="stop-color:#1AA90D"/>
		<stop  offset="0.9987" style="stop-color:#36E52A"/>
	</linearGradient>
	<path class="st18" d="M85.3,94.6c2.1,4.2,5,7,7.7,7.7c0.8-3.4,0.2-8-1.9-12.2c-2.1-4.2-5-7-7.7-7.7C82.6,85.7,83.3,90.3,85.3,94.6z
		"/>
	
		<linearGradient id="SVGID_20_" gradientUnits="userSpaceOnUse" x1="-1352.8181" y1="-1175.0723" x2="-1333.7235" y2="-1175.0723" gradientTransform="matrix(-0.2587 0.1612 0.165 0.2648 -59.4151 614.6094)">
		<stop  offset="0" style="stop-color:#1AA90D"/>
		<stop  offset="0.9987" style="stop-color:#36E52A"/>
	</linearGradient>
	<path class="st19" d="M91.9,88.6c1.7,3.4,4,5.7,6.1,6.3c0.6-2.6,0-6.3-1.7-9.7c-1.7-3.4-4-5.7-6.1-6.3
		C89.7,81.5,90.2,85.2,91.9,88.6z"/>
	
		<linearGradient id="SVGID_21_" gradientUnits="userSpaceOnUse" x1="-1672.684" y1="-2091.5032" x2="-1653.8794" y2="-2091.5032" gradientTransform="matrix(-0.2305 0.1437 0.1114 0.1788 -49.9317 693.4098)">
		<stop  offset="0" style="stop-color:#1AA90D"/>
		<stop  offset="0.9987" style="stop-color:#36E52A"/>
	</linearGradient>
	<path class="st20" d="M98.5,82c1.1,2.3,2.9,3.7,4.6,3.9c0.7-2,0.5-4.6-0.6-7c-1.1-2.3-2.9-3.7-4.6-3.9C97.2,77.1,97.4,79.7,98.5,82
		z"/>
	
		<linearGradient id="SVGID_22_" gradientUnits="userSpaceOnUse" x1="-2358.7373" y1="-3230.2292" x2="-2340.0164" y2="-3230.2292" gradientTransform="matrix(-0.1848 0.1152 7.924538e-02 0.1272 -72.4729 756.9164)">
		<stop  offset="0" style="stop-color:#1AA90D"/>
		<stop  offset="0.9987" style="stop-color:#36E52A"/>
	</linearGradient>
	<path class="st21" d="M104.1,76.8c0.8,1.6,2.1,2.6,3.5,2.6c0.6-1.5,0.5-3.4-0.3-5.1c-0.8-1.6-2.1-2.6-3.5-2.6
		C103.2,73.3,103.3,75.2,104.1,76.8z"/>
	
		<linearGradient id="SVGID_23_" gradientUnits="userSpaceOnUse" x1="-536.162" y1="138.66" x2="-529.1722" y2="138.66" gradientTransform="matrix(0.7899 0.6133 -0.6133 0.7899 587.0855 333.9703)">
		<stop  offset="0" style="stop-color:#1AA90D"/>
		<stop  offset="0.9987" style="stop-color:#36E52A"/>
	</linearGradient>
	<path class="st22" d="M51.5,158.8l-0.4-0.4c-0.6-0.5-0.7-1.3-0.2-1.9L109.3,75c0.4-0.6,1.2-0.7,1.8-0.2l0.4,0.4
		c0.6,0.5,0.7,1.3,0.2,1.9l-58.5,81.5C52.9,159.2,52.1,159.3,51.5,158.8z"/>
</g>
<g>
	
		<linearGradient id="SVGID_24_" gradientUnits="userSpaceOnUse" x1="-1043.9292" y1="132.7094" x2="-1013.8939" y2="132.7094" gradientTransform="matrix(5.072515e-02 0.3959 -0.553 7.085267e-02 191.5571 537.7405)">
		<stop  offset="0" style="stop-color:#1AA90D"/>
		<stop  offset="0.9987" style="stop-color:#36E52A"/>
	</linearGradient>
	<path class="st23" d="M66.6,145.7c-9.8,1.6-18.7,0.6-23.7-2.2c4.3-4.3,12.6-8.1,22.5-9.6c9.8-1.6,18.7-0.6,23.7,2.2
		C84.7,140.4,76.4,144.1,66.6,145.7z"/>
	
		<linearGradient id="SVGID_25_" gradientUnits="userSpaceOnUse" x1="-1080.9194" y1="117.6353" x2="-1050.8979" y2="117.6353" gradientTransform="matrix(4.758354e-02 0.3963 -0.5399 6.481973e-02 180.653 541.764)">
		<stop  offset="0" style="stop-color:#1AA90D"/>
		<stop  offset="0.9987" style="stop-color:#36E52A"/>
	</linearGradient>
	<path class="st24" d="M67,132.9c-9.6,1.4-18.2,0.3-23.1-2.5c4.2-4.2,12.3-7.9,21.9-9.3s18.2-0.3,23.1,2.5
		C84.7,127.8,76.6,131.5,67,132.9z"/>
	
		<linearGradient id="SVGID_26_" gradientUnits="userSpaceOnUse" x1="-1083.1678" y1="41.2001" x2="-1053.1332" y2="41.2001" gradientTransform="matrix(5.876933e-02 0.3948 -0.5244 7.806548e-02 151.4082 532.0395)">
		<stop  offset="0" style="stop-color:#1AA90D"/>
		<stop  offset="0.9987" style="stop-color:#36E52A"/>
	</linearGradient>
	<path class="st25" d="M67.7,119.5c-9.3,1.7-17.7,0.9-22.6-1.8c4-4.4,11.8-8.3,21.2-10c9.3-1.7,17.7-0.9,22.6,1.8
		C84.9,113.8,77,117.7,67.7,119.5z"/>
	
		<linearGradient id="SVGID_27_" gradientUnits="userSpaceOnUse" x1="-1114.2853" y1="23.8141" x2="-1084.2559" y2="23.8141" gradientTransform="matrix(5.891196e-02 0.3948 -0.5169 7.713243e-02 142.6345 532.0542)">
		<stop  offset="0" style="stop-color:#1AA90D"/>
		<stop  offset="0.9987" style="stop-color:#36E52A"/>
	</linearGradient>
	<path class="st26" d="M66.3,105.8c-9.2,1.7-17.5,0.8-22.3-1.9c3.9-4.4,11.7-8.2,20.8-10s17.5-0.9,22.3,1.9
		C83.2,100.2,75.4,104.1,66.3,105.8z"/>
	
		<linearGradient id="SVGID_28_" gradientUnits="userSpaceOnUse" x1="-1015.03" y1="-270.692" x2="-985.0056" y2="-270.692" gradientTransform="matrix(0.1029 0.3857 -0.46 0.1227 41.5043 506.1171)">
		<stop  offset="0" style="stop-color:#1AA90D"/>
		<stop  offset="0.9987" style="stop-color:#36E52A"/>
	</linearGradient>
	<path class="st27" d="M64.4,93c-8.2,2.7-15.8,2.8-20.4,0.6c3.1-4.8,9.8-9.5,17.9-12.2c8.2-2.7,15.8-2.8,20.4-0.6
		C79.2,85.6,72.6,90.3,64.4,93z"/>
	
		<linearGradient id="SVGID_29_" gradientUnits="userSpaceOnUse" x1="-959.843" y1="-395.0373" x2="-929.8157" y2="-395.0373" gradientTransform="matrix(0.1271 0.3784 -0.4513 0.1516 4.1247 489.8429)">
		<stop  offset="0" style="stop-color:#1AA90D"/>
		<stop  offset="0.9987" style="stop-color:#36E52A"/>
	</linearGradient>
	<path class="st28" d="M63.8,78.1c-8,3.4-15.6,4.1-20.3,2.3c2.9-5,9.3-10.2,17.3-13.6c8-3.4,15.6-4.1,20.3-2.3
		C78.2,69.5,71.8,74.7,63.8,78.1z"/>
	
		<linearGradient id="SVGID_30_" gradientUnits="userSpaceOnUse" x1="-1049.8666" y1="-545.0846" x2="-1019.9879" y2="-545.0846" gradientTransform="matrix(0.1119 0.3831 -0.3876 0.1132 -36.1021 516.0754)">
		<stop  offset="0" style="stop-color:#1AA90D"/>
		<stop  offset="0.9987" style="stop-color:#36E52A"/>
	</linearGradient>
	<path class="st29" d="M60.7,63.6c-6.9,2.5-13.4,2.4-17.5,0.2c2.5-4.6,7.9-9.1,14.8-11.7s13.4-2.4,17.5-0.2
		C73.1,56.5,67.6,61.1,60.7,63.6z"/>
	
		<linearGradient id="SVGID_31_" gradientUnits="userSpaceOnUse" x1="-980.7697" y1="-768.9764" x2="-951.0108" y2="-768.9764" gradientTransform="matrix(0.1381 0.3745 -0.3627 0.1338 -86.7413 508.0237)">
		<stop  offset="0" style="stop-color:#1AA90D"/>
		<stop  offset="0.9987" style="stop-color:#36E52A"/>
	</linearGradient>
	<path class="st30" d="M60.4,49.1c-6.4,3-12.7,3.3-16.8,1.4c2.1-4.8,7-9.6,13.5-12.6s12.7-3.3,16.8-1.4
		C71.8,41.2,66.8,46.1,60.4,49.1z"/>
	
		<linearGradient id="SVGID_32_" gradientUnits="userSpaceOnUse" x1="-1676.8557" y1="-1252.9775" x2="-1647.0756" y2="-1252.9775" gradientTransform="matrix(0.1039 0.2817 -0.2784 0.1027 -120.5341 628.1875)">
		<stop  offset="0" style="stop-color:#1AA90D"/>
		<stop  offset="0.9987" style="stop-color:#36E52A"/>
	</linearGradient>
	<path class="st31" d="M56.9,35.7c-4.9,2.3-9.8,2.6-12.8,1.2c1.6-3.6,5.4-7.3,10.4-9.6s9.8-2.6,12.8-1.2
		C65.7,29.7,61.8,33.4,56.9,35.7z"/>
	
		<linearGradient id="SVGID_33_" gradientUnits="userSpaceOnUse" x1="-1990.3275" y1="-2341.7944" x2="-1960.8019" y2="-2341.7944" gradientTransform="matrix(9.425733e-02 0.2556 -0.1828 6.743015e-02 -188.7919 681.6542)">
		<stop  offset="0" style="stop-color:#1AA90D"/>
		<stop  offset="0.9987" style="stop-color:#36E52A"/>
	</linearGradient>
	<path class="st32" d="M54.3,22.6c-3.2,1.5-6.5,1.3-8.7-0.3c0.9-3,3.3-5.9,6.5-7.4c3.2-1.5,6.5-1.3,8.7,0.3
		C59.9,18.3,57.6,21.1,54.3,22.6z"/>
	
		<linearGradient id="SVGID_34_" gradientUnits="userSpaceOnUse" x1="-2681.0479" y1="-3104.4832" x2="-2651.53" y2="-3104.4832" gradientTransform="matrix(7.727411e-02 0.2095 -0.1478 5.449754e-02 -200.263 734.2783)">
		<stop  offset="0" style="stop-color:#1AA90D"/>
		<stop  offset="0.9987" style="stop-color:#36E52A"/>
	</linearGradient>
	<path class="st33" d="M53.4,9.5c-2.6,1.2-5.3,1-7.1-0.3c0.7-2.5,2.6-4.8,5.2-6c2.6-1.2,5.3-1,7.1,0.3C57.9,6,56,8.3,53.4,9.5z"/>
	
		<linearGradient id="SVGID_35_" gradientUnits="userSpaceOnUse" x1="-1212.0499" y1="1077.2174" x2="-1182.0078" y2="1077.2174" gradientTransform="matrix(-5.072516e-02 0.3959 0.5648 7.235964e-02 -645.3973 535.9734)">
		<stop  offset="0" style="stop-color:#1AA90D"/>
		<stop  offset="0.9987" style="stop-color:#36E52A"/>
	</linearGradient>
	<path class="st34" d="M23.1,145.9c10,1.6,19,0.6,24.2-2.1c-4.4-4.3-12.9-8.1-22.9-9.7c-10-1.6-19-0.6-24.2,2.1
		C4.6,140.5,13.1,144.3,23.1,145.9z"/>
	
		<linearGradient id="SVGID_36_" gradientUnits="userSpaceOnUse" x1="-1238.5863" y1="1087.7941" x2="-1208.5583" y2="1087.7941" gradientTransform="matrix(-4.758355e-02 0.3963 0.5531 6.640494e-02 -636.6426 539.85)">
		<stop  offset="0" style="stop-color:#1AA90D"/>
		<stop  offset="0.9987" style="stop-color:#36E52A"/>
	</linearGradient>
	<path class="st35" d="M22.6,133.1c9.8,1.5,18.6,0.4,23.6-2.5c-4.3-4.3-12.7-7.9-22.5-9.4c-9.8-1.5-18.6-0.4-23.6,2.5
		C4.5,128,12.8,131.6,22.6,133.1z"/>
	
		<linearGradient id="SVGID_37_" gradientUnits="userSpaceOnUse" x1="-1278.0847" y1="1034.2593" x2="-1248.0387" y2="1034.2593" gradientTransform="matrix(-5.876933e-02 0.3948 0.5399 8.036357e-02 -610.0891 529.2659)">
		<stop  offset="0" style="stop-color:#1AA90D"/>
		<stop  offset="0.9987" style="stop-color:#36E52A"/>
	</linearGradient>
	<path class="st36" d="M21.8,119.6c9.6,1.8,18.3,1,23.2-1.7c-4.1-4.4-12.2-8.3-21.8-10.1c-9.6-1.8-18.3-1-23.2,1.7
		C4.1,113.9,12.2,117.8,21.8,119.6z"/>
	
		<linearGradient id="SVGID_38_" gradientUnits="userSpaceOnUse" x1="-1309.6783" y1="1032.2104" x2="-1279.6373" y2="1032.2104" gradientTransform="matrix(-5.891197e-02 0.3948 0.5326 7.947323e-02 -602.0347 529.1663)">
		<stop  offset="0" style="stop-color:#1AA90D"/>
		<stop  offset="0.9987" style="stop-color:#36E52A"/>
	</linearGradient>
	<path class="st37" d="M23.3,106c9.5,1.8,18,0.9,22.9-1.8c-4.1-4.4-12-8.3-21.5-10.1s-18-0.9-22.9,1.8
		C5.8,100.3,13.8,104.2,23.3,106z"/>
	
		<linearGradient id="SVGID_39_" gradientUnits="userSpaceOnUse" x1="-1356.6266" y1="805.635" x2="-1326.6022" y2="805.635" gradientTransform="matrix(-0.1029 0.3857 0.46 0.1227 -481.5522 506.1171)">
		<stop  offset="0" style="stop-color:#1AA90D"/>
		<stop  offset="0.9987" style="stop-color:#36E52A"/>
	</linearGradient>
	<path class="st38" d="M25.8,93.3c8.2,2.7,15.8,2.8,20.4,0.6c-3.1-4.8-9.8-9.5-17.9-12.2c-8.2-2.7-15.8-2.8-20.4-0.6
		C11,85.9,17.6,90.6,25.8,93.3z"/>
	
		<linearGradient id="SVGID_40_" gradientUnits="userSpaceOnUse" x1="-1382.2758" y1="660.9275" x2="-1352.2484" y2="660.9275" gradientTransform="matrix(-0.1271 0.3784 0.4513 0.1516 -444.1725 489.8429)">
		<stop  offset="0" style="stop-color:#1AA90D"/>
		<stop  offset="0.9987" style="stop-color:#36E52A"/>
	</linearGradient>
	<path class="st39" d="M26.4,78.4c8,3.4,15.6,4.1,20.3,2.3c-2.9-5-9.3-10.2-17.3-13.6c-8-3.4-15.6-4.1-20.3-2.3
		C12,69.8,18.4,75,26.4,78.4z"/>
	
		<linearGradient id="SVGID_41_" gradientUnits="userSpaceOnUse" x1="-1405.1299" y1="837.7861" x2="-1375.1747" y2="837.7861" gradientTransform="matrix(-9.470461e-02 0.3878 0.4216 0.103 -455.2777 510.3629)">
		<stop  offset="0" style="stop-color:#1AA90D"/>
		<stop  offset="0.9987" style="stop-color:#36E52A"/>
	</linearGradient>
	<path class="st40" d="M28.5,63.4c7.5,2.3,14.5,2,18.7-0.4c-2.9-4.6-9-8.9-16.4-11.2c-7.5-2.3-14.5-2-18.7,0.4
		C14.9,56.8,21,61.1,28.5,63.4z"/>
	
		<linearGradient id="SVGID_42_" gradientUnits="userSpaceOnUse" x1="-1439.7007" y1="529.9519" x2="-1409.9424" y2="529.9519" gradientTransform="matrix(-0.1381 0.3745 0.3625 0.1337 -357.4688 506.4886)">
		<stop  offset="0" style="stop-color:#1AA90D"/>
		<stop  offset="0.9987" style="stop-color:#36E52A"/>
	</linearGradient>
	<path class="st41" d="M29.8,49.4c6.4,3,12.7,3.3,16.8,1.4c-2.1-4.8-7-9.6-13.5-12.6s-12.7-3.3-16.8-1.4
		C18.4,41.5,23.3,46.4,29.8,49.4z"/>
	
		<linearGradient id="SVGID_43_" gradientUnits="userSpaceOnUse" x1="-2244.0156" y1="469.3682" x2="-2214.1968" y2="469.3682" gradientTransform="matrix(-0.1055 0.286 0.2928 0.108 -338.5476 618.148)">
		<stop  offset="0" style="stop-color:#1AA90D"/>
		<stop  offset="0.9987" style="stop-color:#36E52A"/>
	</linearGradient>
	<path class="st42" d="M32.7,35.7c5.2,2.4,10.3,2.8,13.5,1.4c-1.7-3.7-5.7-7.5-10.9-9.9S25,24.3,21.7,25.7
		C23.4,29.4,27.5,33.3,32.7,35.7z"/>
	
		<linearGradient id="SVGID_44_" gradientUnits="userSpaceOnUse" x1="-2690.8047" y1="340.8246" x2="-2661.2297" y2="340.8246" gradientTransform="matrix(-9.399108e-02 0.2549 0.1977 7.289754e-02 -282.7311 674.5745)">
		<stop  offset="0" style="stop-color:#1AA90D"/>
		<stop  offset="0.9987" style="stop-color:#36E52A"/>
	</linearGradient>
	<path class="st43" d="M35,21.2c3.5,1.6,7,1.5,9.4,0c-1-3.1-3.6-6-7.1-7.6s-7-1.5-9.4,0C28.9,16.6,31.5,19.6,35,21.2z"/>
	
		<linearGradient id="SVGID_45_" gradientUnits="userSpaceOnUse" x1="-3646.3884" y1="187.2467" x2="-3616.8838" y2="187.2467" gradientTransform="matrix(-7.533459e-02 0.2043 0.1406 5.184329e-02 -261.5892 738.5607)">
		<stop  offset="0" style="stop-color:#1AA90D"/>
		<stop  offset="0.9987" style="stop-color:#36E52A"/>
	</linearGradient>
	<path class="st44" d="M37.4,9.5c2.5,1.2,5,0.9,6.8-0.3c-0.6-2.4-2.5-4.6-5-5.8c-2.5-1.2-5-0.9-6.8,0.3C33.1,6.1,34.9,8.3,37.4,9.5z
		"/>
	<linearGradient id="SVGID_46_" gradientUnits="userSpaceOnUse" x1="42.4311" y1="79.8578" x2="47.4173" y2="79.8578">
		<stop  offset="0" style="stop-color:#1AA90D"/>
		<stop  offset="0.9987" style="stop-color:#36E52A"/>
	</linearGradient>
	<path class="st45" d="M45.4,159.7h-0.9c-1.1,0-2.1-0.9-2.1-2.1V2.1c0-1.1,0.9-2.1,2.1-2.1l0.9,0c1.1,0,2.1,0.9,2.1,2.1v155.6
		C47.4,158.8,46.5,159.7,45.4,159.7z"/>
</g>
</svg>
