<?xml version="1.0" encoding="utf-8"?>
<!-- Generator: Adobe Illustrator 23.0.4, SVG Export Plug-In . SVG Version: 6.00 Build 0)  -->
<svg version="1.1" id="Layer_1" xmlns="http://www.w3.org/2000/svg" xmlns:xlink="http://www.w3.org/1999/xlink" x="0px" y="0px"
	 viewBox="0 0 132.3 165.7" style="enable-background:new 0 0 132.3 165.7;" xml:space="preserve">
<style type="text/css">
	.st0{fill:#781608;}
	.st1{fill:url(#SVGID_1_);}
	.st2{fill:url(#SVGID_2_);}
	.st3{fill:url(#SVGID_3_);}
	.st4{fill:url(#SVGID_4_);}
	.st5{fill:url(#SVGID_5_);}
	.st6{fill:url(#SVGID_6_);}
	.st7{fill:url(#SVGID_7_);}
	.st8{fill:url(#SVGID_8_);}
	.st9{fill:url(#SVGID_9_);}
	.st10{fill:url(#SVGID_10_);}
	.st11{fill:url(#SVGID_11_);}
	.st12{fill:url(#SVGID_12_);}
	.st13{fill:url(#SVGID_13_);}
	.st14{fill:url(#SVGID_14_);}
</style>
<g>
	<path class="st0" d="M66.1,165.7L66.1,165.7c-1.1,0-2-0.9-2-2V52c0-1.1,0.9-2,2-2l0,0c1.1,0,2,0.9,2,2v111.7
		C68.1,164.8,67.2,165.7,66.1,165.7z"/>
	<path class="st0" d="M65.1,165.4L65.1,165.4c-0.9-0.5-1.3-1.8-0.7-2.7l18.8-32.5c0.5-0.9,1.8-1.3,2.7-0.7l0,0
		c0.9,0.5,1.3,1.8,0.7,2.7l-18.8,32.5C67.3,165.7,66.1,166,65.1,165.4z"/>
	<g>
		
			<linearGradient id="SVGID_1_" gradientUnits="userSpaceOnUse" x1="677.1431" y1="500.0701" x2="701.0073" y2="500.0701" gradientTransform="matrix(0.5799 0.5324 -0.6644 0.7237 37.187 -615.1392)">
			<stop  offset="0" style="stop-color:#E81319"/>
			<stop  offset="0.9987" style="stop-color:#5B1B2A"/>
		</linearGradient>
		<path class="st1" d="M111.5,120c-11.8,12.9-24.9,21.5-34.6,23.8c1.4-9.9,9-23.7,20.8-36.5s24.9-21.5,34.6-23.8
			C130.8,93.3,123.3,107.1,111.5,120z"/>
		
			<linearGradient id="SVGID_2_" gradientUnits="userSpaceOnUse" x1="603.6567" y1="500.0701" x2="621.5519" y2="500.0701" gradientTransform="matrix(0.4784 0.4392 -0.6644 0.7237 143.7357 -517.3245)">
			<stop  offset="0" style="stop-color:#D0A90D"/>
			<stop  offset="0.9987" style="stop-color:#36E52A"/>
		</linearGradient>
		<path class="st2" d="M108.8,117.5c-8.9,9.6-18.3,16.5-25.1,18.7c1.6-6.9,7.6-16.9,16.5-26.6s18.3-16.5,25.1-18.7
			C123.7,97.9,117.7,107.9,108.8,117.5z"/>
	</g>
	<g>
		<path class="st0" d="M67.1,165.4L67.1,165.4c0.9-0.5,1.3-1.8,0.7-2.7l-18.8-32.5c-0.5-0.9-1.8-1.3-2.7-0.7h0
			c-0.9,0.5-1.3,1.8-0.7,2.7l18.8,32.5C65,165.7,66.2,166,67.1,165.4z"/>
		<g>
			
				<linearGradient id="SVGID_3_" gradientUnits="userSpaceOnUse" x1="771.1418" y1="430.923" x2="795.006" y2="430.923" gradientTransform="matrix(-0.5799 0.5324 0.6644 0.7237 195.5151 -615.1392)">
				<stop  offset="0" style="stop-color:#E81319"/>
				<stop  offset="0.9987" style="stop-color:#5B1B2A"/>
			</linearGradient>
			<path class="st3" d="M20.8,120c11.8,12.9,24.9,21.5,34.6,23.8c-1.4-9.9-9-23.7-20.8-36.5S9.7,85.7,0,83.4
				C1.4,93.3,9,107.1,20.8,120z"/>
			
				<linearGradient id="SVGID_4_" gradientUnits="userSpaceOnUse" x1="717.6074" y1="430.9231" x2="735.5027" y2="430.9231" gradientTransform="matrix(-0.4784 0.4392 0.6644 0.7237 88.9663 -517.3245)">
				<stop  offset="0" style="stop-color:#D0A90D"/>
				<stop  offset="0.9987" style="stop-color:#36E52A"/>
			</linearGradient>
			<path class="st4" d="M23.4,117.5c8.9,9.6,18.3,16.5,25.1,18.7c-1.6-6.9-7.6-16.9-16.5-26.6S13.7,93.2,6.9,91
				C8.6,97.9,14.6,107.9,23.4,117.5z"/>
		</g>
	</g>
	<g>
		<path class="st0" d="M65.5,160L65.5,160c1-0.3,1.6-1.4,1.3-2.4l-17.3-59c-0.3-1-1.4-1.6-2.4-1.3h0c-1,0.3-1.6,1.4-1.3,2.4l17.3,59
			C63.3,159.7,64.4,160.3,65.5,160z"/>
		<g>
			
				<linearGradient id="SVGID_5_" gradientUnits="userSpaceOnUse" x1="984.4152" y1="300.4734" x2="1008.2794" y2="300.4734" gradientTransform="matrix(-0.7448 0.2549 0.3181 0.9295 684.1938 -460.7844)">
				<stop  offset="0" style="stop-color:#E81319"/>
				<stop  offset="0.9987" style="stop-color:#5B1B2A"/>
			</linearGradient>
			<path class="st5" d="M28.8,75.5C34.5,92.1,43,105.3,51,111.3c2.6-9.6,1.3-25.3-4.4-41.8S32.4,39.7,24.4,33.7
				C21.8,43.4,23.2,59,28.8,75.5z"/>
			
				<linearGradient id="SVGID_6_" gradientUnits="userSpaceOnUse" x1="976.15" y1="300.4736" x2="994.0453" y2="300.4736" gradientTransform="matrix(-0.6144 0.2103 0.3181 0.9295 547.349 -413.9457)">
				<stop  offset="0" style="stop-color:#D0A90D"/>
				<stop  offset="0.9987" style="stop-color:#36E52A"/>
			</linearGradient>
			<path class="st6" d="M32.2,74.4c4.2,12.4,10.2,22.4,15.4,27.2c1.3-7-0.2-18.6-4.4-30.9S33.1,48.2,27.8,43.4
				C26.5,50.4,28,62,32.2,74.4z"/>
		</g>
	</g>
	<g>
		<path class="st0" d="M65.6,161.8L65.6,161.8c-1-0.3-1.6-1.4-1.3-2.4l17.3-59c0.3-1,1.4-1.6,2.4-1.3l0,0c1,0.3,1.6,1.4,1.3,2.4
			l-17.3,59C67.7,161.5,66.6,162.1,65.6,161.8z"/>
		<g>
			
				<linearGradient id="SVGID_7_" gradientUnits="userSpaceOnUse" x1="945.154" y1="313.1841" x2="969.0182" y2="313.1841" gradientTransform="matrix(0.7448 0.2549 -0.3181 0.9295 -519.8658 -460.7844)">
				<stop  offset="0" style="stop-color:#E81319"/>
				<stop  offset="0.9987" style="stop-color:#5B1B2A"/>
			</linearGradient>
			<path class="st7" d="M102.2,77.3c-5.7,16.5-14.2,29.7-22.2,35.7c-2.6-9.6-1.3-25.3,4.4-41.8c5.7-16.5,14.2-29.7,22.2-35.7
				C109.2,45.2,107.9,60.8,102.2,77.3z"/>
			
				<linearGradient id="SVGID_8_" gradientUnits="userSpaceOnUse" x1="928.5553" y1="313.1843" x2="946.4506" y2="313.1843" gradientTransform="matrix(0.6144 0.2103 -0.3181 0.9295 -383.0211 -413.9457)">
				<stop  offset="0" style="stop-color:#D0A90D"/>
				<stop  offset="0.9987" style="stop-color:#36E52A"/>
			</linearGradient>
			<path class="st8" d="M98.8,76.2c-4.2,12.4-10.2,22.4-15.4,27.2c-1.3-7,0.2-18.6,4.4-30.9S98,50,103.3,45.2
				C104.6,52.2,103.1,63.8,98.8,76.2z"/>
		</g>
	</g>
	<path class="st0" d="M67.8,150.8L67.8,150.8c-1.1-0.1-1.9-1.1-1.8-2.2l9.7-94.3c0.1-1.1,1.1-1.9,2.2-1.8l0,0
		c1.1,0.1,1.9,1.1,1.8,2.2L70,149C69.9,150.1,68.9,150.9,67.8,150.8z"/>
	<g>
		
			<linearGradient id="SVGID_9_" gradientUnits="userSpaceOnUse" x1="1046.75" y1="248.2387" x2="1062.9094" y2="248.2387" gradientTransform="matrix(0.7783 0.1184 -0.1477 0.9713 -703.1023 -330.4104)">
			<stop  offset="0" style="stop-color:#E81319"/>
			<stop  offset="0.9987" style="stop-color:#5B1B2A"/>
		</linearGradient>
		<path class="st9" d="M87.5,36.5C85.7,48.2,81.6,58,77,63c-2.9-6.1-3.9-16.7-2.1-28.4c1.8-11.7,5.9-21.5,10.5-26.5
			C88.3,14.2,89.2,24.8,87.5,36.5z"/>
		
			<linearGradient id="SVGID_10_" gradientUnits="userSpaceOnUse" x1="1049.9352" y1="248.2388" x2="1062.0527" y2="248.2388" gradientTransform="matrix(0.642 9.764002e-02 -0.1477 0.9713 -560.1079 -308.6625)">
			<stop  offset="0" style="stop-color:#D0A90D"/>
			<stop  offset="0.9987" style="stop-color:#36E52A"/>
		</linearGradient>
		<path class="st10" d="M85.1,36.1c-1.3,8.8-4.1,16.2-7,20c-1.7-4.5-2.1-12.4-0.8-21.2c1.3-8.8,4.1-16.2,7-20
			C86,19.5,86.4,27.4,85.1,36.1z"/>
	</g>
	<g>
		
			<linearGradient id="SVGID_11_" gradientUnits="userSpaceOnUse" x1="1109.4016" y1="250.4776" x2="1126.5035" y2="250.4776" gradientTransform="matrix(0.7864 3.654178e-02 -4.560360e-02 0.9814 -800.3892 -257.3394)">
			<stop  offset="0" style="stop-color:#E81319"/>
			<stop  offset="0.9987" style="stop-color:#5B1B2A"/>
		</linearGradient>
		<path class="st11" d="M74,29.6c-0.6,12.5-3.8,23.3-8.1,29C62.2,52.6,60,41.5,60.6,29c0.6-12.5,3.8-23.3,8.1-29
			C72.4,6.1,74.6,17.1,74,29.6z"/>
		
			<linearGradient id="SVGID_12_" gradientUnits="userSpaceOnUse" x1="1126.103" y1="250.4777" x2="1138.9275" y2="250.4777" gradientTransform="matrix(0.6487 3.014326e-02 -4.560382e-02 0.9814 -655.9064 -250.6252)">
			<stop  offset="0" style="stop-color:#D0A90D"/>
			<stop  offset="0.9987" style="stop-color:#36E52A"/>
		</linearGradient>
		<path class="st12" d="M71.5,29.5C71,38.9,69,47,66.3,51.3c-2.3-4.5-3.6-12.8-3.1-22.2c0.4-9.4,2.5-17.5,5.2-21.8
			C70.6,11.9,71.9,20.1,71.5,29.5z"/>
	</g>
	<path class="st0" d="M64.7,150.1L64.7,150.1c-1.1,0.1-2.1-0.6-2.2-1.7L50,54.5c-0.1-1.1,0.6-2.1,1.7-2.2h0c1.1-0.1,2.1,0.6,2.2,1.7
		l12.5,94C66.6,149,65.8,150,64.7,150.1z"/>
	<g>
		
			<linearGradient id="SVGID_13_" gradientUnits="userSpaceOnUse" x1="1174.6815" y1="239.5912" x2="1190.8408" y2="239.5912" gradientTransform="matrix(0.7845 -6.537450e-02 8.158439e-02 0.979 -896.4479 -122.2702)">
			<stop  offset="0" style="stop-color:#E81319"/>
			<stop  offset="0.9987" style="stop-color:#5B1B2A"/>
		</linearGradient>
		<path class="st13" d="M57.3,34.4c1,11.8-0.7,22.3-4,28.2c-4.3-5.3-7.7-15.3-8.6-27.1c-1-11.8,0.7-22.3,4-28.2
			C52.9,12.6,56.3,22.7,57.3,34.4z"/>
		
			<linearGradient id="SVGID_14_" gradientUnits="userSpaceOnUse" x1="1205.0212" y1="239.5914" x2="1217.1389" y2="239.5914" gradientTransform="matrix(0.6471 -5.392809e-02 8.158417e-02 0.979 -752.3087 -134.2814)">
			<stop  offset="0" style="stop-color:#D0A90D"/>
			<stop  offset="0.9987" style="stop-color:#36E52A"/>
		</linearGradient>
		<path class="st14" d="M54.9,34.7c0.7,8.8-0.2,16.7-2.2,21.1c-2.7-4-4.9-11.6-5.6-20.4c-0.7-8.8,0.2-16.7,2.2-21.1
			C51.9,18.2,54.2,25.8,54.9,34.7z"/>
	</g>
</g>
</svg>
