<?xml version="1.0" encoding="utf-8"?>
<!-- Generator: Adobe Illustrator 23.0.4, SVG Export Plug-In . SVG Version: 6.00 Build 0)  -->
<svg version="1.1" id="Layer_1" xmlns="http://www.w3.org/2000/svg" xmlns:xlink="http://www.w3.org/1999/xlink" x="0px" y="0px"
	 viewBox="0 0 102.7 131.6" style="enable-background:new 0 0 102.7 131.6;" xml:space="preserve">
<style type="text/css">
	.st0{fill:url(#SVGID_1_);}
	.st1{fill:url(#SVGID_2_);}
	.st2{fill:url(#SVGID_3_);}
	.st3{fill:url(#SVGID_4_);}
	.st4{fill:none;stroke:url(#SVGID_5_);stroke-width:0.75;stroke-linecap:round;stroke-miterlimit:10;}
	.st5{fill:url(#SVGID_6_);}
	.st6{fill:url(#SVGID_7_);}
	.st7{fill:url(#SVGID_8_);}
	.st8{fill:url(#SVGID_9_);}
	.st9{fill:none;stroke:url(#SVGID_10_);stroke-width:0.75;stroke-miterlimit:10;}
	.st10{fill:none;stroke:url(#SVGID_11_);stroke-width:0.75;stroke-miterlimit:10;}
	.st11{fill:none;stroke:url(#SVGID_12_);stroke-width:0.75;stroke-linecap:round;stroke-miterlimit:10;}
	.st12{fill:none;stroke:url(#SVGID_13_);stroke-width:0.75;stroke-miterlimit:10;}
	.st13{fill:none;stroke:url(#SVGID_14_);stroke-width:0.75;stroke-miterlimit:10;}
	.st14{fill:none;stroke:url(#SVGID_15_);stroke-width:0.75;stroke-miterlimit:10;}
	.st15{fill:none;stroke:url(#SVGID_16_);stroke-width:0.75;stroke-miterlimit:10;}
	.st16{fill:none;stroke:url(#SVGID_17_);stroke-width:0.75;stroke-miterlimit:10;}
	.st17{fill:none;stroke:url(#SVGID_18_);stroke-miterlimit:10;}
	.st18{fill:none;stroke:url(#SVGID_19_);stroke-width:0.75;stroke-linecap:round;stroke-miterlimit:10;}
	.st19{fill:none;stroke:url(#SVGID_20_);stroke-width:2;stroke-linecap:round;stroke-miterlimit:10;}
	.st20{fill:url(#SVGID_21_);}
	.st21{fill:url(#SVGID_22_);}
	.st22{fill:url(#SVGID_23_);}
	.st23{fill:url(#SVGID_24_);}
	.st24{fill:url(#SVGID_25_);}
	.st25{fill:url(#SVGID_26_);}
	.st26{fill:url(#SVGID_27_);}
	.st27{fill:url(#SVGID_28_);}
	.st28{fill:url(#SVGID_29_);}
	.st29{fill:url(#SVGID_30_);}
	.st30{fill:url(#SVGID_31_);}
	.st31{fill:url(#SVGID_32_);}
	.st32{fill:url(#SVGID_33_);}
	.st33{fill:url(#SVGID_34_);}
</style>
<g>
	<g>
		
			<linearGradient id="SVGID_1_" gradientUnits="userSpaceOnUse" x1="393.3676" y1="297.5784" x2="401.2649" y2="297.5784" gradientTransform="matrix(0.9336 -0.3584 0.3584 0.9336 -463.8248 -9.2794)">
			<stop  offset="0" style="stop-color:#1AA90D"/>
			<stop  offset="0.9987" style="stop-color:#36E52A"/>
		</linearGradient>
		<path class="st0" d="M14.8,118c0,0-2.9,0.3-3.7,2c-0.8,1.7-0.8,1.7-0.8,1.7l1.1,0l-1.4,5.6l4-2.8c0,0,0.3-0.4,1.1,0.9s5,6.3,5,6.3
			L14.8,118z"/>
		
			<linearGradient id="SVGID_2_" gradientUnits="userSpaceOnUse" x1="-847.1807" y1="297.5817" x2="-839.2848" y2="297.5817" gradientTransform="matrix(-0.9336 0.3584 0.3584 0.9336 -872.7657 147.7318)">
			<stop  offset="0" style="stop-color:#1AA90D"/>
			<stop  offset="0.9987" style="stop-color:#36E52A"/>
		</linearGradient>
		<path class="st1" d="M14.8,118c0,0,2.3-1.7,4.1-1c1.8,0.7,1.8,0.7,1.8,0.7l-0.8,0.7l4.8,3.2l-4.9,0.6c0,0-0.5,0-0.3,1.4
			c0.2,1.4,0.5,8,0.5,8L14.8,118z"/>
	</g>
	<g>
		
			<linearGradient id="SVGID_3_" gradientUnits="userSpaceOnUse" x1="910.1872" y1="1054.8252" x2="916.6229" y2="1054.8252" gradientTransform="matrix(0.3856 -0.9227 0.9227 0.3856 -1286.8502 535.2916)">
			<stop  offset="0" style="stop-color:#1AA90D"/>
			<stop  offset="0.9987" style="stop-color:#36E52A"/>
		</linearGradient>
		<path class="st2" d="M34.4,94c0,0-1.4,1.9-0.9,3.3c0.5,1.4,0.5,1.4,0.5,1.4l0.6-0.6l2.5,4l0.6-4c0,0,0-0.4,1.2-0.2
			c1.2,0.2,6.6,0.6,6.6,0.6L34.4,94z"/>
		
			<linearGradient id="SVGID_4_" gradientUnits="userSpaceOnUse" x1="-1361.1057" y1="1054.8252" x2="-1354.6699" y2="1054.8252" gradientTransform="matrix(-0.3856 0.9227 0.9227 0.3856 -1455.7535 939.4659)">
			<stop  offset="0" style="stop-color:#1AA90D"/>
			<stop  offset="0.9987" style="stop-color:#36E52A"/>
		</linearGradient>
		<path class="st3" d="M34.4,94c0,0,0.3-2.3,1.7-3s1.4-0.6,1.4-0.6l0,0.9l4.6-1l-2.4,3.2c0,0-0.3,0.3,0.7,1c1,0.7,5.1,4.2,5.1,4.2
			L34.4,94z"/>
	</g>
	<linearGradient id="SVGID_5_" gradientUnits="userSpaceOnUse" x1="93.3595" y1="23.3343" x2="94.467" y2="23.3343">
		<stop  offset="0" style="stop-color:#1AA90D"/>
		<stop  offset="0.9987" style="stop-color:#36E52A"/>
	</linearGradient>
	<path class="st4" d="M93.7,26.1c0,0,0.8,0.6,0-5.6"/>
	<g>
		
			<linearGradient id="SVGID_6_" gradientUnits="userSpaceOnUse" x1="934.4783" y1="1369.0422" x2="946.3343" y2="1369.0422" gradientTransform="matrix(9.587251e-02 -0.9954 0.9954 9.587251e-02 -1398.7427 879.7277)">
			<stop  offset="0" style="stop-color:#1AA90D"/>
			<stop  offset="0.9987" style="stop-color:#36E52A"/>
		</linearGradient>
		<path class="st5" d="M43.9,68c0,0-1.5,4.1,0.2,6.3c1.7,2.3,1.7,2.3,1.7,2.3l0.7-1.4l6.6,5.6l-1.1-7.3c0,0-0.3-0.7,1.9-1
			c2.2-0.2,11.9-2.4,11.9-2.4L43.9,68z"/>
		
			<linearGradient id="SVGID_7_" gradientUnits="userSpaceOnUse" x1="-1396.2373" y1="1369.0422" x2="-1384.3813" y2="1369.0422" gradientTransform="matrix(-9.587251e-02 0.9954 0.9954 9.587251e-02 -1440.7393 1315.757)">
			<stop  offset="0" style="stop-color:#1AA90D"/>
			<stop  offset="0.9987" style="stop-color:#36E52A"/>
		</linearGradient>
		<path class="st6" d="M43.9,68c0,0-0.7-4.3,1.4-6.2s2.1-1.9,2.1-1.9l0.5,1.5l7.6-4.3L53,64.1c0,0-0.4,0.7,1.7,1.3
			s11.2,4.7,11.2,4.7L43.9,68z"/>
	</g>
	<g>
		
			<linearGradient id="SVGID_8_" gradientUnits="userSpaceOnUse" x1="-868.7581" y1="2192.3037" x2="-856.9021" y2="2192.3037" gradientTransform="matrix(-0.9589 0.2838 -0.2838 -0.9589 -108.7787 2356.0857)">
			<stop  offset="0" style="stop-color:#1AA90D"/>
			<stop  offset="0.9987" style="stop-color:#36E52A"/>
		</linearGradient>
		<path class="st7" d="M93.7,21.1c0,0,4.3-0.1,5.8-2.5c1.5-2.4,1.5-2.4,1.5-2.4L99.4,16l2.7-8.3l-6.3,3.8c0,0-0.6,0.5-1.6-1.4
			c-1-2-6.7-10.1-6.7-10.1L93.7,21.1z"/>
		
			<linearGradient id="SVGID_9_" gradientUnits="userSpaceOnUse" x1="406.999" y1="2192.3037" x2="418.855" y2="2192.3037" gradientTransform="matrix(0.9589 -0.2838 -0.2838 -0.9589 311.2524 2231.7512)">
			<stop  offset="0" style="stop-color:#1AA90D"/>
			<stop  offset="0.9987" style="stop-color:#36E52A"/>
		</linearGradient>
		<path class="st8" d="M93.7,21.1c0,0-3.7,2.3-6.2,1c-2.5-1.2-2.5-1.2-2.5-1.2l1.2-1l-6.8-5.4l7.4-0.3c0,0,0.8,0.1,0.6-2.1
			S87.4,0,87.4,0L93.7,21.1z"/>
	</g>
	<linearGradient id="SVGID_10_" gradientUnits="userSpaceOnUse" x1="88.7839" y1="29.4629" x2="89.9394" y2="29.4629">
		<stop  offset="0" style="stop-color:#1AA90D"/>
		<stop  offset="0.9987" style="stop-color:#36E52A"/>
	</linearGradient>
	<path class="st9" d="M89.4,27c0,0,0.5,2.1-0.2,4.9"/>
	<linearGradient id="SVGID_11_" gradientUnits="userSpaceOnUse" x1="63.911" y1="28.4319" x2="66.3352" y2="28.4319">
		<stop  offset="0" style="stop-color:#1AA90D"/>
		<stop  offset="0.9987" style="stop-color:#36E52A"/>
	</linearGradient>
	<path class="st10" d="M66,30.7c0,0,0-3.3-1.9-4.3"/>
	<linearGradient id="SVGID_12_" gradientUnits="userSpaceOnUse" x1="60.9386" y1="37.9152" x2="65.1383" y2="37.9152">
		<stop  offset="0" style="stop-color:#1AA90D"/>
		<stop  offset="0.9987" style="stop-color:#36E52A"/>
	</linearGradient>
	<path class="st11" d="M61.3,33.8c0,0,2.7,1.1,2.8,2.9c0.1,1.8-0.7,4,0.7,5.3"/>
	<linearGradient id="SVGID_13_" gradientUnits="userSpaceOnUse" x1="39.4453" y1="43.2276" x2="46.9168" y2="43.2276">
		<stop  offset="0" style="stop-color:#1AA90D"/>
		<stop  offset="0.9987" style="stop-color:#36E52A"/>
	</linearGradient>
	<path class="st12" d="M46.6,45.4c0,0-1-1.8-3.2-2.3c-2.2-0.5-2.6-1.3-3.8-2"/>
	<linearGradient id="SVGID_14_" gradientUnits="userSpaceOnUse" x1="35.8319" y1="67.9999" x2="44.9871" y2="67.9999">
		<stop  offset="0" style="stop-color:#1AA90D"/>
		<stop  offset="0.9987" style="stop-color:#36E52A"/>
	</linearGradient>
	<path class="st13" d="M36,67.4c0,0,2.7,1.8,4.7,1c2-0.7,4.2-0.3,4.2-0.3"/>
	<linearGradient id="SVGID_15_" gradientUnits="userSpaceOnUse" x1="24.9712" y1="75.4408" x2="31.3882" y2="75.4408">
		<stop  offset="0" style="stop-color:#1AA90D"/>
		<stop  offset="0.9987" style="stop-color:#36E52A"/>
	</linearGradient>
	<path class="st14" d="M31.2,77.9c0,0-1.4,0.9-3.2-1.9c-1.7-2.9-1.6-3.3-3-3"/>
	<linearGradient id="SVGID_16_" gradientUnits="userSpaceOnUse" x1="19.7761" y1="96.413" x2="25.0554" y2="96.413">
		<stop  offset="0" style="stop-color:#1AA90D"/>
		<stop  offset="0.9987" style="stop-color:#36E52A"/>
	</linearGradient>
	<path class="st15" d="M25.1,97.2c0,0-2.2,0-3-0.6s-2.2-0.9-2.2-0.9"/>
	<linearGradient id="SVGID_17_" gradientUnits="userSpaceOnUse" x1="26.8383" y1="93.971" x2="34.7834" y2="93.971">
		<stop  offset="0" style="stop-color:#1AA90D"/>
		<stop  offset="0.9987" style="stop-color:#36E52A"/>
	</linearGradient>
	<path class="st16" d="M27.1,93.4c0,0,1,1,2.9,0.5c2-0.6,4.6,0.5,4.6,0.5"/>
	<linearGradient id="SVGID_18_" gradientUnits="userSpaceOnUse" x1="11.349" y1="116.7252" x2="15.3175" y2="116.7252">
		<stop  offset="0" style="stop-color:#1AA90D"/>
		<stop  offset="0.9987" style="stop-color:#36E52A"/>
	</linearGradient>
	<path class="st17" d="M11.4,115.8c0,0,2.9,0.5,3.4,2.2"/>
	<linearGradient id="SVGID_19_" gradientUnits="userSpaceOnUse" x1="7.8492" y1="110.4499" x2="15.4069" y2="110.4499">
		<stop  offset="0" style="stop-color:#1AA90D"/>
		<stop  offset="0.9987" style="stop-color:#36E52A"/>
	</linearGradient>
	<path class="st18" d="M15,112.4c0,0-0.7-1.5-2.5-1.9s-3.7-1-4.3-2"/>
	<linearGradient id="SVGID_20_" gradientUnits="userSpaceOnUse" x1="1.4003" y1="71.6371" x2="102.7478" y2="71.6371">
		<stop  offset="0" style="stop-color:#1AA90D"/>
		<stop  offset="0.9987" style="stop-color:#36E52A"/>
	</linearGradient>
	<path class="st19" d="M101.7,27.4c0,0-35.6-7.9-56.2,20.7s-16.5,70.1-43.2,68.6"/>
	<g>
		
			<linearGradient id="SVGID_21_" gradientUnits="userSpaceOnUse" x1="-1293.2772" y1="1384.1584" x2="-1288.3336" y2="1384.1584" gradientTransform="matrix(-0.4461 0.895 -0.895 -0.4461 668.2576 1876.9807)">
			<stop  offset="0" style="stop-color:#1AA90D"/>
			<stop  offset="0.9987" style="stop-color:#36E52A"/>
		</linearGradient>
		<path class="st20" d="M8.2,108.5c0,0,1.2-1.3,0.9-2.5c-0.3-1.1-0.3-1.1-0.3-1.1l-0.5,0.4l-1.7-3.2l-0.6,3c0,0,0,0.3-0.9,0.1
			s-5-0.8-5-0.8L8.2,108.5z"/>
		
			<linearGradient id="SVGID_22_" gradientUnits="userSpaceOnUse" x1="845.343" y1="1384.1584" x2="850.2866" y2="1384.1584" gradientTransform="matrix(0.4461 -0.895 -0.895 -0.4461 863.6681 1484.9348)">
			<stop  offset="0" style="stop-color:#1AA90D"/>
			<stop  offset="0.9987" style="stop-color:#36E52A"/>
		</linearGradient>
		<path class="st21" d="M8.2,108.5c0,0-0.4,1.8-1.5,2.2c-1.1,0.4-1.1,0.4-1.1,0.4l0-0.7L2.1,111l2-2.3c0,0,0.3-0.2-0.5-0.8
			S0,104.4,0,104.4L8.2,108.5z"/>
	</g>
	<g>
		
			<linearGradient id="SVGID_23_" gradientUnits="userSpaceOnUse" x1="-1312.5376" y1="1381.734" x2="-1304.8812" y2="1381.734" gradientTransform="matrix(-0.4461 0.895 -0.895 -0.4461 668.2576 1876.9807)">
			<stop  offset="0" style="stop-color:#1AA90D"/>
			<stop  offset="0.9987" style="stop-color:#36E52A"/>
		</linearGradient>
		<path class="st22" d="M20,95.9c0,0,1.9-2.1,1.4-3.9c-0.5-1.8-0.5-1.8-0.5-1.8l-0.8,0.7L17.4,86l-1,4.7c0,0,0,0.5-1.4,0.1
			s-7.7-1.3-7.7-1.3L20,95.9z"/>
		
			<linearGradient id="SVGID_24_" gradientUnits="userSpaceOnUse" x1="859.1777" y1="1381.734" x2="866.8341" y2="1381.734" gradientTransform="matrix(0.4461 -0.895 -0.895 -0.4461 863.6681 1484.9348)">
			<stop  offset="0" style="stop-color:#1AA90D"/>
			<stop  offset="0.9987" style="stop-color:#36E52A"/>
		</linearGradient>
		<path class="st23" d="M20,95.9c0,0-0.6,2.7-2.3,3.4C16,99.9,16,99.9,16,99.9l0.1-1l-5.6,0.8l3.1-3.6c0,0,0.4-0.3-0.7-1.2
			c-1.1-0.9-5.7-5.4-5.7-5.4L20,95.9z"/>
	</g>
	<g>
		
			<linearGradient id="SVGID_25_" gradientUnits="userSpaceOnUse" x1="-1206.1333" y1="1794.0531" x2="-1194.2772" y2="1794.0531" gradientTransform="matrix(-0.626 0.7799 -0.7799 -0.626 668.8373 2120.4646)">
			<stop  offset="0" style="stop-color:#1AA90D"/>
			<stop  offset="0.9987" style="stop-color:#36E52A"/>
		</linearGradient>
		<path class="st24" d="M25.7,72.9c0,0,3.5-2.6,3.3-5.4s-0.2-2.8-0.2-2.8l-1.4,0.8L25,57.1L22,63.8c0,0-0.2,0.8-2.1-0.3
			c-2-1-11.3-4.5-11.3-4.5L25.7,72.9z"/>
		
			<linearGradient id="SVGID_26_" gradientUnits="userSpaceOnUse" x1="744.3742" y1="1794.0531" x2="756.2302" y2="1794.0531" gradientTransform="matrix(0.626 -0.7799 -0.7799 -0.626 943.0333 1778.8483)">
			<stop  offset="0" style="stop-color:#1AA90D"/>
			<stop  offset="0.9987" style="stop-color:#36E52A"/>
		</linearGradient>
		<path class="st25" d="M25.7,72.9c0,0-1.7,4-4.5,4.4c-2.8,0.4-2.8,0.4-2.8,0.4l0.5-1.5l-8.7-0.6l5.9-4.4c0,0,0.7-0.3-0.7-2
			s-6.8-10-6.8-10L25.7,72.9z"/>
	</g>
	<g>
		
			<linearGradient id="SVGID_27_" gradientUnits="userSpaceOnUse" x1="463.2197" y1="247.4094" x2="475.0757" y2="247.4094" gradientTransform="matrix(0.9336 -0.3584 0.3584 0.9336 -463.8248 -9.2794)">
			<stop  offset="0" style="stop-color:#1AA90D"/>
			<stop  offset="0.9987" style="stop-color:#36E52A"/>
		</linearGradient>
		<path class="st26" d="M64.5,41.3c0,0-4.3,0.4-5.6,3c-1.3,2.5-1.3,2.5-1.3,2.5l1.6,0l-2.1,8.5l6-4.3c0,0,0.5-0.6,1.7,1.3
			s7.5,9.5,7.5,9.5L64.5,41.3z"/>
		
			<linearGradient id="SVGID_28_" gradientUnits="userSpaceOnUse" x1="-924.9787" y1="247.4094" x2="-913.1227" y2="247.4094" gradientTransform="matrix(-0.9336 0.3584 0.3584 0.9336 -872.7657 147.7318)">
			<stop  offset="0" style="stop-color:#1AA90D"/>
			<stop  offset="0.9987" style="stop-color:#36E52A"/>
		</linearGradient>
		<path class="st27" d="M64.5,41.3c0,0,3.5-2.6,6.1-1.5c2.6,1,2.6,1,2.6,1l-1.2,1.1l7.2,4.9L72,47.6c0,0-0.8-0.1-0.4,2.1
			s0.8,12.1,0.8,12.1L64.5,41.3z"/>
	</g>
	<g>
		
			<linearGradient id="SVGID_29_" gradientUnits="userSpaceOnUse" x1="-1391.8137" y1="1321.3666" x2="-1379.9578" y2="1321.3666" gradientTransform="matrix(-0.3434 0.9392 -0.9392 -0.3434 797.1063 1787.2137)">
			<stop  offset="0" style="stop-color:#1AA90D"/>
			<stop  offset="0.9987" style="stop-color:#36E52A"/>
		</linearGradient>
		<path class="st28" d="M40.1,41.2c0,0,2.5-3.5,1.4-6.2c-1.1-2.6-1.1-2.6-1.1-2.6l-1.1,1.2l-5-7.1l-0.7,7.3c0,0,0.1,0.8-2.1,0.4
			c-2.2-0.3-12.1-0.6-12.1-0.6L40.1,41.2z"/>
		
			<linearGradient id="SVGID_30_" gradientUnits="userSpaceOnUse" x1="930.0547" y1="1321.3666" x2="941.9107" y2="1321.3666" gradientTransform="matrix(0.3434 -0.9392 -0.9392 -0.3434 947.5192 1375.8)">
			<stop  offset="0" style="stop-color:#1AA90D"/>
			<stop  offset="0.9987" style="stop-color:#36E52A"/>
		</linearGradient>
		<path class="st29" d="M40.1,41.2c0,0-0.4,4.3-2.9,5.6c-2.5,1.3-2.5,1.3-2.5,1.3l-0.1-1.6l-8.4,2.2l4.2-6.1c0,0,0.6-0.5-1.3-1.7
			c-1.9-1.2-9.7-7.3-9.7-7.3L40.1,41.2z"/>
	</g>
	<g>
		
			<linearGradient id="SVGID_31_" gradientUnits="userSpaceOnUse" x1="-1197.9197" y1="1806.4934" x2="-1190.048" y2="1806.4934" gradientTransform="matrix(-0.7268 0.6869 -0.6869 -0.7268 435.627 2152.0872)">
			<stop  offset="0" style="stop-color:#1AA90D"/>
			<stop  offset="0.9987" style="stop-color:#36E52A"/>
		</linearGradient>
		<path class="st30" d="M64.6,27c0,0,2.5-1.4,2.7-3.2s0.1-1.9,0.1-1.9l-1,0.4l-0.9-5.7L63,20.7c0,0-0.2,0.5-1.4-0.4
			c-1.2-0.9-7-4-7-4L64.6,27z"/>
		
			<linearGradient id="SVGID_32_" gradientUnits="userSpaceOnUse" x1="744.1292" y1="1806.4934" x2="752.0009" y2="1806.4934" gradientTransform="matrix(0.7268 -0.6869 -0.6869 -0.7268 753.9865 1851.201)">
			<stop  offset="0" style="stop-color:#1AA90D"/>
			<stop  offset="0.9987" style="stop-color:#36E52A"/>
		</linearGradient>
		<path class="st31" d="M64.6,27c0,0-1.5,2.5-3.4,2.5c-1.9,0-1.9,0-1.9,0l0.4-1l-5.7-1.2l4.3-2.4c0,0,0.5-0.1-0.3-1.4
			c-0.8-1.2-3.6-7.2-3.6-7.2L64.6,27z"/>
	</g>
	<g>
		
			<linearGradient id="SVGID_33_" gradientUnits="userSpaceOnUse" x1="134.5642" y1="74.3644" x2="143.5149" y2="74.3644" gradientTransform="matrix(0.9996 -2.894041e-02 2.894041e-02 0.9996 -55.8217 -31.0738)">
			<stop  offset="0" style="stop-color:#1AA90D"/>
			<stop  offset="0.9987" style="stop-color:#36E52A"/>
		</linearGradient>
		<path class="st32" d="M89.5,30.9c0,0-3.2-0.8-4.7,0.7c-1.5,1.5-1.5,1.5-1.5,1.5l1.1,0.4l-3.6,5.5l5.4-1.5c0,0,0.5-0.3,0.9,1.4
			c0.4,1.6,2.9,8.7,2.9,8.7L89.5,30.9z"/>
		
			<linearGradient id="SVGID_34_" gradientUnits="userSpaceOnUse" x1="-590.5126" y1="74.3644" x2="-581.562" y2="74.3644" gradientTransform="matrix(-0.9996 2.894041e-02 2.894041e-02 0.9996 -493.6852 -18.3965)">
			<stop  offset="0" style="stop-color:#1AA90D"/>
			<stop  offset="0.9987" style="stop-color:#36E52A"/>
		</linearGradient>
		<path class="st33" d="M89.5,30.9c0,0,3.1-0.9,4.7,0.5s1.6,1.4,1.6,1.4l-1.1,0.5l3.9,5.3l-5.4-1.2c0,0-0.5-0.2-0.8,1.4
			c-0.3,1.7-2.4,8.8-2.4,8.8L89.5,30.9z"/>
	</g>
</g>
</svg>
