<?xml version="1.0" encoding="utf-8"?>
<!-- Generator: Adobe Illustrator 23.0.4, SVG Export Plug-In . SVG Version: 6.00 Build 0)  -->
<svg version="1.1" id="Layer_1" xmlns="http://www.w3.org/2000/svg" xmlns:xlink="http://www.w3.org/1999/xlink" x="0px" y="0px"
	 viewBox="0 0 107.4 110.9" style="enable-background:new 0 0 107.4 110.9;" xml:space="preserve">
<style type="text/css">
	.st0{fill:url(#SVGID_1_);}
	.st1{fill:url(#SVGID_2_);}
	.st2{fill:none;stroke:#FFFCFF;stroke-width:0.75;stroke-miterlimit:10;}
</style>
<g>
	<g>
		<linearGradient id="SVGID_1_" gradientUnits="userSpaceOnUse" x1="0" y1="55.4657" x2="53.7815" y2="55.4657">
			<stop  offset="0" style="stop-color:#1AA90D"/>
			<stop  offset="0.9987" style="stop-color:#36E52A"/>
		</linearGradient>
		<path class="st0" d="M53.8,19.9c0,0-38.3-44.7-51.9,0s51.9,91.1,51.9,91.1"/>
		
			<linearGradient id="SVGID_2_" gradientUnits="userSpaceOnUse" x1="-626.1765" y1="55.7649" x2="-572.3949" y2="55.7649" gradientTransform="matrix(-1 0 0 1 -518.8185 0)">
			<stop  offset="0" style="stop-color:#1AA90D"/>
			<stop  offset="0.9987" style="stop-color:#36E52A"/>
		</linearGradient>
		<path class="st1" d="M53.6,110.9c0,0,65.5-46.4,51.9-91.1c-12.8-42-49.6-2.5-51.8-0.1c-0.1,0.1-0.1,0.1-0.1,0.1"/>
	</g>
	<path class="st2" d="M53.7,19.7c0,0-21,20.2,0.1,91"/>
	<path class="st2" d="M45.9,34.9c0,0-29.4-12.8-30-24"/>
	<path class="st2" d="M45.9,41.2c0,0,29.5-1,47.4-19.2"/>
	<path class="st2" d="M43.7,56.4c0,0-24.1,2.1-34-13.2"/>
	<path class="st2" d="M44.9,66.9c0,0,24.5,7.9,47.6-7.4"/>
	<path class="st2" d="M48.3,89.5c0,0-17.7-2.6-23.6-10.7"/>
</g>
</svg>
