<?xml version="1.0" encoding="utf-8"?>
<!-- Generator: Adobe Illustrator 23.0.4, SVG Export Plug-In . SVG Version: 6.00 Build 0)  -->
<svg version="1.1" id="Layer_1" xmlns="http://www.w3.org/2000/svg" xmlns:xlink="http://www.w3.org/1999/xlink" x="0px" y="0px"
	 viewBox="0 0 126.8 163.6" style="enable-background:new 0 0 126.8 163.6;" xml:space="preserve">
<style type="text/css">
	.st0{fill:url(#SVGID_1_);}
	.st1{fill:url(#SVGID_2_);}
	.st2{fill:url(#SVGID_3_);}
	.st3{fill:url(#SVGID_4_);}
	.st4{fill:url(#SVGID_5_);}
	.st5{fill:url(#SVGID_6_);}
</style>
<g>
	
		<linearGradient id="SVGID_1_" gradientUnits="userSpaceOnUse" x1="856.9534" y1="89.0595" x2="880.8176" y2="89.0595" gradientTransform="matrix(0.9293 0.8537 -0.7919 0.862 -643.2228 -712.069)">
		<stop  offset="0" style="stop-color:#1AA90D"/>
		<stop  offset="0.9987" style="stop-color:#36E52A"/>
	</linearGradient>
	<path class="st0" d="M104.8,116.7C90.8,132,74,141.3,60.7,142.4c0-13.3,7.9-30.8,21.9-46.1s30.8-24.6,44.1-25.8
		C126.7,83.9,118.9,101.4,104.8,116.7z"/>
	
		<linearGradient id="SVGID_2_" gradientUnits="userSpaceOnUse" x1="1458.9873" y1="530.5032" x2="1482.8514" y2="530.5032" gradientTransform="matrix(0.685 -0.8106 0.7504 0.6341 -1374.3654 940.2944)">
		<stop  offset="0" style="stop-color:#1AA90D"/>
		<stop  offset="0.9987" style="stop-color:#36E52A"/>
	</linearGradient>
	<path class="st1" d="M39.5,74.8c13.3,11.3,21.7,25,23.1,36.1c-11.2,0.5-26.1-5.5-39.5-16.8S1.4,69.1,0,58
		C11.2,57.5,26.1,63.5,39.5,74.8z"/>
	<linearGradient id="SVGID_3_" gradientUnits="userSpaceOnUse" x1="58.238" y1="99.9768" x2="63.2242" y2="99.9768">
		<stop  offset="0" style="stop-color:#1AA90D"/>
		<stop  offset="0.9987" style="stop-color:#36E52A"/>
	</linearGradient>
	<path class="st2" d="M61.2,163.6h-0.9c-1.1,0-2.1-0.9-2.1-2.1v-123c0-1.1,0.9-2.1,2.1-2.1h0.9c1.1,0,2.1,0.9,2.1,2.1v123
		C63.2,162.6,62.3,163.6,61.2,163.6z"/>
	<g>
		
			<linearGradient id="SVGID_4_" gradientUnits="userSpaceOnUse" x1="1101.9889" y1="-279.3956" x2="1125.853" y2="-279.3956" gradientTransform="matrix(1.6309 3.900559e-02 -1.530868e-02 0.6401 -1760.1949 162.085)">
			<stop  offset="0" style="stop-color:#D6FFE0"/>
			<stop  offset="0.9987" style="stop-color:#E6FFEE"/>
		</linearGradient>
		<path class="st3" d="M80.2,27.2c-0.3,11.4-8.3,21.1-20.1,26.2C48.6,47.7,41,37.6,41.3,26.2C41.5,14.9,49.6,5.1,61.4,0
			C72.9,5.7,80.5,15.8,80.2,27.2z"/>
		
			<linearGradient id="SVGID_5_" gradientUnits="userSpaceOnUse" x1="1139.5868" y1="-577.3334" x2="1163.4509" y2="-577.3334" gradientTransform="matrix(1.3561 3.243297e-02 -1.155032e-02 0.483 -1507.4551 268.1751)">
			<stop  offset="0" style="stop-color:#B6FFE0"/>
			<stop  offset="1" style="stop-color:#E6FFB4"/>
		</linearGradient>
		<path class="st4" d="M76.9,27.1C76.7,35.7,70,43,60.2,46.8c-9.6-4.3-15.9-11.9-15.7-20.5c0.2-8.6,6.9-15.9,16.7-19.8
			C70.8,10.8,77.1,18.5,76.9,27.1z"/>
		<linearGradient id="SVGID_6_" gradientUnits="userSpaceOnUse" x1="58.2037" y1="33.9768" x2="63.2585" y2="33.9768">
			<stop  offset="0" style="stop-color:#D99F6C"/>
			<stop  offset="0" style="stop-color:#DAFE70"/>
			<stop  offset="0.963" style="stop-color:#FAED49"/>
		</linearGradient>
		<path class="st5" d="M60.7,46.8L60.7,46.8c-1.4,0-2.5-1.1-2.5-2.5V23.7c0-1.4,1.1-2.5,2.5-2.5h0c1.4,0,2.5,1.1,2.5,2.5v20.6
			C63.3,45.7,62.1,46.8,60.7,46.8z"/>
	</g>
</g>
</svg>
