<?xml version="1.0" encoding="utf-8"?>
<!-- Generator: Adobe Illustrator 23.0.4, SVG Export Plug-In . SVG Version: 6.00 Build 0)  -->
<svg version="1.1" id="Layer_1" xmlns="http://www.w3.org/2000/svg" xmlns:xlink="http://www.w3.org/1999/xlink" x="0px" y="0px"
	 viewBox="0 0 89.9 129.3" style="enable-background:new 0 0 89.9 129.3;" xml:space="preserve">
<style type="text/css">
	.st0{fill:url(#SVGID_1_);}
	.st1{fill:url(#SVGID_2_);}
	.st2{fill:none;stroke:#FFFFFD;stroke-width:0.75;stroke-miterlimit:10;}
	.st3{fill:none;stroke:#FFFFFD;stroke-width:0.5;stroke-miterlimit:10;}
	.st4{fill:url(#SVGID_3_);}
	.st5{fill:url(#SVGID_4_);}
	.st6{fill:url(#SVGID_5_);}
</style>
<linearGradient id="SVGID_1_" gradientUnits="userSpaceOnUse" x1="42.5331" y1="65.7166" x2="47.5193" y2="65.7166">
	<stop  offset="0" style="stop-color:#1AA90D"/>
	<stop  offset="0.9987" style="stop-color:#36E52A"/>
</linearGradient>
<path class="st0" d="M45.5,129.3h-0.9c-1.1,0-2.1-0.9-2.1-2.1V4.2c0-1.1,0.9-2.1,2.1-2.1h0.9c1.1,0,2.1,0.9,2.1,2.1v123
	C47.5,128.4,46.6,129.3,45.5,129.3z"/>
<g>
	
		<linearGradient id="SVGID_2_" gradientUnits="userSpaceOnUse" x1="1317.9336" y1="-416.4341" x2="1341.7977" y2="-416.4341" gradientTransform="matrix(-0.562 -0.9677 -0.5198 0.3019 598.5781 1428.4161)">
		<stop  offset="0" style="stop-color:#1AA90D"/>
		<stop  offset="0.9987" style="stop-color:#36E52A"/>
	</linearGradient>
	<path class="st1" d="M60.9,4.2c-9.2,5.4-14.6,14.7-15,24.1c8.4,4.4,19.1,4.3,28.4-1S89,12.6,89.3,3.1C80.9-1.2,70.2-1.2,60.9,4.2z"
		/>
	<g>
		<path class="st2" d="M46,28.2c0,0,28.8-8.8,43.2-25"/>
		<path class="st3" d="M85.4,6.6c0,0-0.8-1.9-0.7-5.2"/>
		<path class="st3" d="M87.1,5.8c0,0-0.8-1.4-0.7-3.9"/>
		<path class="st3" d="M83.4,8.3c0,0-0.8-2.7-0.7-7.5"/>
		<path class="st3" d="M81.4,10.1c0,0-0.8-3.5-0.7-9.8"/>
		<path class="st3" d="M79.4,11.7c0,0-0.8-4.2-0.7-11.6"/>
		<path class="st3" d="M77.9,12.9c0,0-1.3-4.7-1.2-12.9"/>
		<path class="st3" d="M75.9,14.3c0,0-1.3-5.2-1.2-14.3"/>
		<path class="st3" d="M73.9,15.5c0,0-1.3-5.5-1.2-15.3"/>
		<path class="st3" d="M71.9,17c0,0-1.3-6-1.2-16.5"/>
		<path class="st3" d="M68.7,1c-0.2,10.8,1.1,16.9,1.1,16.9"/>
		<path class="st3" d="M67.9,18.6c0,0-1.3-6.1-1.1-16.9"/>
		<path class="st3" d="M65.9,19.6c0,0-1.3-6.3-1.1-17.3"/>
		<path class="st3" d="M63.9,20.6c0,0-1.3-6.3-1.1-17.3"/>
		<path class="st3" d="M61.9,21.6c0,0-1.3-6.3-1.1-17.3"/>
		<path class="st3" d="M59.9,22.6c0,0-1.3-6.1-1.1-16.9"/>
		<path class="st3" d="M57.9,23.6c0,0-1.3-5.9-1.2-16.3"/>
		<path class="st3" d="M55.9,24.6c0,0-1.3-5.6-1.2-15.5"/>
		<path class="st3" d="M53.9,25.6c0,0-1.3-5.1-1.2-14.2"/>
		<path class="st3" d="M51.9,26.6c0,0-1.3-4.5-1.2-12.5"/>
		<path class="st3" d="M49.9,26.6c0,0-1.3-3.2-1.2-8.7"/>
		<path class="st3" d="M47.9,27.6c0,0-1.1-1.7-1-4.6"/>
		<path class="st3" d="M69.9,18.1c0,0,1.5,5.9,4.8,8.9"/>
		<path class="st3" d="M67.9,18.5c0,0,1.5,6.3,5,9.6"/>
		<path class="st3" d="M65.9,19.6c0,0,1.5,6.2,4.9,9.4"/>
		<path class="st3" d="M64,20.8c0,0,1.5,5.9,4.8,9"/>
		<path class="st3" d="M61.9,21.7c0,0,1.3,5.8,4.2,8.9"/>
		<path class="st3" d="M59.9,22.8c0,0,1.1,5.4,3.7,8.3"/>
		<path class="st3" d="M57.9,23.6c0,0,1,5,3.2,7.7"/>
		<path class="st3" d="M71.9,16.9c0,0,1.4,5.8,4.7,8.8"/>
		<path class="st3" d="M73.9,15.7c0,0,1.4,5.7,4.5,8.6"/>
		<path class="st3" d="M75.9,14.1c0,0,1.4,5.7,4.5,8.6"/>
		<path class="st3" d="M77.8,12.6c0,0,1.3,5.4,4.4,8.2"/>
		<path class="st3" d="M79.4,11.4c0,0,1.2,5.1,4,7.8"/>
		<path class="st3" d="M81.4,10.1c0,0,1.1,4.5,3.6,6.9"/>
		<path class="st3" d="M83.4,8.1c0,0,0.9,4.3,2.9,6.5"/>
		<path class="st3" d="M85.6,6.6c0,0,0.6,3.2,2.1,4.9"/>
		<path class="st3" d="M87,5.6c0,0,0.4,2.1,1.5,3.2"/>
		<path class="st3" d="M55.9,24.6c0,0,0.9,4.4,2.8,6.7"/>
		<path class="st3" d="M53.8,25.7c0,0,0.7,3.6,2.3,5.5"/>
		<path class="st3" d="M51.7,26c0,0,0.6,3.1,1.8,4.7"/>
		<path class="st3" d="M49.9,26.8c0,0,0.4,2.2,1.3,3.3"/>
		<path class="st3" d="M47.9,27.8c0,0,0.2,0.9,0.6,1.4"/>
	</g>
</g>
<g>
	
		<linearGradient id="SVGID_3_" gradientUnits="userSpaceOnUse" x1="1281.8793" y1="-378.2819" x2="1305.7434" y2="-378.2819" gradientTransform="matrix(-0.562 -0.9677 -0.5198 0.3019 598.5781 1428.4161)">
		<stop  offset="0" style="stop-color:#1AA90D"/>
		<stop  offset="0.9987" style="stop-color:#36E52A"/>
	</linearGradient>
	<path class="st4" d="M61.4,50.6c-9.2,5.4-14.6,14.7-15,24.1c8.4,4.4,19.1,4.3,28.4-1s14.6-14.7,15-24.1
		C81.4,45.2,70.6,45.2,61.4,50.6z"/>
	<g>
		<path class="st2" d="M46.4,74.6c0,0,28.8-8.8,43.2-25"/>
		<path class="st3" d="M85.9,53c0,0-0.8-1.9-0.7-5.2"/>
		<path class="st3" d="M87.5,52.2c0,0-0.8-1.4-0.7-3.9"/>
		<path class="st3" d="M83.9,54.8c0,0-0.8-2.7-0.7-7.5"/>
		<path class="st3" d="M81.9,56.6c0,0-0.8-3.5-0.7-9.8"/>
		<path class="st3" d="M79.9,58.1c0,0-0.8-4.2-0.7-11.6"/>
		<path class="st3" d="M78.3,59.3c0,0-1.3-4.7-1.2-12.9"/>
		<path class="st3" d="M76.3,60.7c0,0-1.3-5.2-1.2-14.3"/>
		<path class="st3" d="M74.3,61.9c0,0-1.3-5.5-1.2-15.3"/>
		<path class="st3" d="M72.3,63.4c0,0-1.3-6-1.2-16.5"/>
		<path class="st3" d="M69.1,47.4c-0.2,10.8,1.1,16.9,1.1,16.9"/>
		<path class="st3" d="M68.3,65c0,0-1.3-6.1-1.1-16.9"/>
		<path class="st3" d="M66.3,66c0,0-1.3-6.3-1.1-17.3"/>
		<path class="st3" d="M64.3,67c0,0-1.3-6.3-1.1-17.3"/>
		<path class="st3" d="M62.3,68c0,0-1.3-6.3-1.1-17.3"/>
		<path class="st3" d="M60.3,69c0,0-1.3-6.1-1.1-16.9"/>
		<path class="st3" d="M58.3,70c0,0-1.3-5.9-1.2-16.3"/>
		<path class="st3" d="M56.3,71c0,0-1.3-5.6-1.2-15.5"/>
		<path class="st3" d="M54.3,72c0,0-1.3-5.1-1.2-14.2"/>
		<path class="st3" d="M52.3,73c0,0-1.3-4.5-1.2-12.5"/>
		<path class="st3" d="M50.3,73c0,0-1.3-3.2-1.2-8.7"/>
		<path class="st3" d="M48.3,74c0,0-1.1-1.7-1-4.6"/>
		<path class="st3" d="M70.3,64.5c0,0,1.5,5.9,4.8,8.9"/>
		<path class="st3" d="M68.3,64.9c0,0,1.5,6.3,5,9.6"/>
		<path class="st3" d="M66.3,66c0,0,1.5,6.2,4.9,9.4"/>
		<path class="st3" d="M64.4,67.2c0,0,1.5,5.9,4.8,9"/>
		<path class="st3" d="M62.3,68.1c0,0,1.3,5.8,4.2,8.9"/>
		<path class="st3" d="M60.3,69.3c0,0,1.1,5.4,3.7,8.3"/>
		<path class="st3" d="M58.3,70c0,0,1,5,3.2,7.7"/>
		<path class="st3" d="M72.4,63.3c0,0,1.4,5.8,4.7,8.8"/>
		<path class="st3" d="M74.4,62.1c0,0,1.4,5.7,4.5,8.6"/>
		<path class="st3" d="M76.3,60.5c0,0,1.4,5.7,4.5,8.6"/>
		<path class="st3" d="M78.2,59c0,0,1.3,5.4,4.4,8.2"/>
		<path class="st3" d="M79.8,57.8c0,0,1.2,5.1,4,7.8"/>
		<path class="st3" d="M81.8,56.5c0,0,1.1,4.5,3.6,6.9"/>
		<path class="st3" d="M83.8,54.5c0,0,0.9,4.3,2.9,6.5"/>
		<path class="st3" d="M86,53c0,0,0.6,3.2,2.1,4.9"/>
		<path class="st3" d="M87.4,52c0,0,0.4,2.1,1.5,3.2"/>
		<path class="st3" d="M56.3,71c0,0,0.9,4.4,2.8,6.7"/>
		<path class="st3" d="M54.2,72.1c0,0,0.7,3.6,2.3,5.5"/>
		<path class="st3" d="M52.1,72.4c0,0,0.6,3.1,1.8,4.7"/>
		<path class="st3" d="M50.3,73.2c0,0,0.4,2.2,1.3,3.3"/>
		<path class="st3" d="M48.3,74.2c0,0,0.2,0.9,0.6,1.4"/>
	</g>
</g>
<g>
	
		<linearGradient id="SVGID_4_" gradientUnits="userSpaceOnUse" x1="540.7692" y1="507.2644" x2="564.6334" y2="507.2644" gradientTransform="matrix(-0.527 0.9872 0.5303 0.2831 44.3905 -601.7591)">
		<stop  offset="0" style="stop-color:#1AA90D"/>
		<stop  offset="0.9987" style="stop-color:#36E52A"/>
	</linearGradient>
	<path class="st5" d="M15.8,99.3c9.4,5,20.2,4.7,28.4,0c-0.7-9.4-6.4-18.6-15.8-23.6C19,70.7,8.2,71,0,75.7
		C0.7,85.1,6.4,94.2,15.8,99.3z"/>
	<g>
		<path class="st2" d="M44.1,99.3c0,0-22.7-19.9-44-23.6"/>
		<path class="st3" d="M5,77.2c0,0-1.2,1.7-4,3.4"/>
		<path class="st3" d="M3.4,76.2c0,0-0.8,1.5-2.9,2.7"/>
		<path class="st3" d="M7.5,78c0,0-1.9,2.1-6,4.6"/>
		<path class="st3" d="M10.1,78.7c0,0-2.6,2.6-7.9,5.8"/>
		<path class="st3" d="M12.5,79.6c0,0-3.1,2.9-9.5,6.7"/>
		<path class="st3" d="M14.4,80.3c0,0-3.3,3.6-10.4,7.8"/>
		<path class="st3" d="M16.5,81.3c0,0-3.7,3.8-11.5,8.5"/>
		<path class="st3" d="M18.7,82.3c0,0-4,4-12.4,9"/>
		<path class="st3" d="M21,83.2c0,0-4.4,4.3-13.4,9.6"/>
		<path class="st3" d="M9,94.4c9.2-5.5,13.7-9.9,13.7-9.9"/>
		<path class="st3" d="M24.4,85.8c0,0-4.5,4.3-13.8,9.9"/>
		<path class="st3" d="M26.3,87c0,0-4.6,4.4-14.1,10.1"/>
		<path class="st3" d="M28.2,88.2c0,0-4.6,4.4-14.1,10.1"/>
		<path class="st3" d="M30.1,89.3c0,0-4.6,4.4-14.1,10.1"/>
		<path class="st3" d="M32,90.5c0,0-4.5,4.3-13.8,9.9"/>
		<path class="st3" d="M33.9,91.7c0,0-4.3,4.2-13.2,9.5"/>
		<path class="st3" d="M35.8,92.9c0,0-4.1,4.1-12.6,9.1"/>
		<path class="st3" d="M37.7,94c0,0-3.7,3.8-11.4,8.4"/>
		<path class="st3" d="M39.6,95.2c0,0-3.1,3.5-10,7.5"/>
		<path class="st3" d="M40.7,96.9c0,0-2,2.8-6.8,5.6"/>
		<path class="st3" d="M42.6,98.1c0,0-0.8,1.8-3.4,3.2"/>
		<path class="st3" d="M23,84.3c0,0,4.2-4.3,5.1-8.8"/>
		<path class="st3" d="M24.4,85.9c0,0,4.5-4.6,5.5-9.3"/>
		<path class="st3" d="M26.3,87c0,0,4.5-4.5,5.4-9.1"/>
		<path class="st3" d="M28.3,88c0,0,4.3-4.3,5.2-8.8"/>
		<path class="st3" d="M30.2,89.3c0,0,4.3-4.2,5.3-8.2"/>
		<path class="st3" d="M32.3,90.4c0,0,4-3.8,5.1-7.5"/>
		<path class="st3" d="M33.9,91.7c0,0,3.8-3.5,4.8-6.8"/>
		<path class="st3" d="M20.9,83.2c0,0,4.2-4.3,5-8.7"/>
		<path class="st3" d="M18.8,82.1c0,0,4.1-4.2,5-8.4"/>
		<path class="st3" d="M16.4,81.4c0,0,4.1-4.2,5-8.4"/>
		<path class="st3" d="M14.2,80.5c0,0,3.9-4,4.7-8.1"/>
		<path class="st3" d="M12.3,79.8c0,0,3.7-3.7,4.5-7.5"/>
		<path class="st3" d="M10,78.8c0,0,3.2-3.3,3.9-6.7"/>
		<path class="st3" d="M7.3,78.1c0,0,3.2-3,4-5.9"/>
		<path class="st3" d="M4.9,77.1c0,0,2.4-2.3,3.1-4.4"/>
		<path class="st3" d="M3.3,76.4c0,0,1.6-1.5,2-3"/>
		<path class="st3" d="M35.8,92.8c0,0,3.3-3.1,4.3-5.9"/>
		<path class="st3" d="M37.9,94c0,0,2.7-2.5,3.5-4.9"/>
		<path class="st3" d="M39.2,95.6c0,0,2.4-2.1,3.1-4.1"/>
		<path class="st3" d="M40.9,96.7c0,0,1.6-1.5,2.1-2.8"/>
		<path class="st3" d="M42.8,98c0,0,0.7-0.6,0.9-1.2"/>
	</g>
</g>
<g>
	
		<linearGradient id="SVGID_5_" gradientUnits="userSpaceOnUse" x1="503.9761" y1="470.1307" x2="527.7732" y2="470.1307" gradientTransform="matrix(-0.527 0.9872 0.5303 0.2831 44.3905 -601.7591)">
		<stop  offset="0" style="stop-color:#1AA90D"/>
		<stop  offset="0.9987" style="stop-color:#36E52A"/>
	</linearGradient>
	<path class="st6" d="M15.6,52.4c9.3,5,19.9,4.7,28,0C43,43,37.3,33.9,28,28.8s-19.9-4.7-28,0C0.7,38.2,6.3,47.4,15.6,52.4z"/>
	<g>
		<path class="st2" d="M43.6,52.5c0,0-22.4-19.9-43.4-23.6"/>
		<path class="st3" d="M4.9,30.3c0,0-1.1,1.7-4,3.4"/>
		<path class="st3" d="M3.4,29.4c0,0-0.7,1.5-2.9,2.7"/>
		<path class="st3" d="M7.4,31.1c0,0-1.9,2.1-5.9,4.6"/>
		<path class="st3" d="M10,31.8c0,0-2.5,2.6-7.8,5.8"/>
		<path class="st3" d="M12.3,32.7c0,0-3.1,2.9-9.3,6.7"/>
		<path class="st3" d="M14.2,33.4c0,0-3.3,3.6-10.3,7.8"/>
		<path class="st3" d="M16.3,34.4c0,0-3.7,3.8-11.4,8.5"/>
		<path class="st3" d="M18.4,35.5c0,0-4,4-12.2,9"/>
		<path class="st3" d="M20.7,36.4c0,0-4.3,4.3-13.2,9.6"/>
		<path class="st3" d="M8.9,47.5c9.1-5.5,13.6-9.9,13.6-9.9"/>
		<path class="st3" d="M24.1,38.9c0,0-4.5,4.3-13.6,9.9"/>
		<path class="st3" d="M26,40.1c0,0-4.6,4.4-13.9,10.1"/>
		<path class="st3" d="M27.9,41.3c0,0-4.6,4.4-13.9,10.1"/>
		<path class="st3" d="M29.7,42.5c0,0-4.6,4.4-13.9,10.1"/>
		<path class="st3" d="M31.6,43.6c0,0-4.5,4.3-13.6,9.9"/>
		<path class="st3" d="M33.5,44.8c0,0-4.3,4.2-13,9.5"/>
		<path class="st3" d="M35.4,46c0,0-4,4.1-12.4,9.1"/>
		<path class="st3" d="M37.3,47.2c0,0-3.6,3.8-11.3,8.4"/>
		<path class="st3" d="M39.1,48.3c0,0-3.1,3.5-9.9,7.5"/>
		<path class="st3" d="M40.2,50c0,0-2,2.8-6.7,5.6"/>
		<path class="st3" d="M42.1,51.2c0,0-0.8,1.8-3.3,3.2"/>
		<path class="st3" d="M22.7,37.5c0,0,4.2-4.3,5-8.8"/>
		<path class="st3" d="M24,39c0,0,4.5-4.6,5.4-9.3"/>
		<path class="st3" d="M26,40.1c0,0,4.4-4.5,5.4-9.1"/>
		<path class="st3" d="M28,41.1c0,0,4.2-4.3,5.1-8.8"/>
		<path class="st3" d="M29.9,42.4c0,0,4.2-4.2,5.3-8.2"/>
		<path class="st3" d="M31.8,43.5c0,0,4-3.8,5-7.5"/>
		<path class="st3" d="M33.5,44.8c0,0,3.7-3.5,4.8-6.8"/>
		<path class="st3" d="M20.6,36.4c0,0,4.1-4.3,4.9-8.7"/>
		<path class="st3" d="M18.6,35.3c0,0,4-4.2,4.9-8.4"/>
		<path class="st3" d="M16.2,34.5c0,0,4-4.2,4.9-8.4"/>
		<path class="st3" d="M14,33.7c0,0,3.8-4,4.6-8.1"/>
		<path class="st3" d="M12.1,32.9c0,0,3.7-3.7,4.5-7.5"/>
		<path class="st3" d="M9.9,31.9c0,0,3.2-3.3,3.9-6.7"/>
		<path class="st3" d="M7.2,31.3c0,0,3.1-3,3.9-5.9"/>
		<path class="st3" d="M4.8,30.2c0,0,2.4-2.3,3-4.4"/>
		<path class="st3" d="M3.2,29.6c0,0,1.6-1.5,2-3"/>
		<path class="st3" d="M35.4,46c0,0,3.3-3.1,4.2-5.9"/>
		<path class="st3" d="M37.4,47.2c0,0,2.7-2.5,3.4-4.9"/>
		<path class="st3" d="M38.7,48.8c0,0,2.3-2.1,3-4.1"/>
		<path class="st3" d="M40.4,49.9c0,0,1.6-1.5,2.1-2.8"/>
		<path class="st3" d="M42.2,51.1c0,0,0.7-0.6,0.9-1.2"/>
	</g>
</g>
</svg>
