<?xml version="1.0" encoding="utf-8"?>
<!-- Generator: Adobe Illustrator 23.0.4, SVG Export Plug-In . SVG Version: 6.00 Build 0)  -->
<svg version="1.1" id="Layer_1" xmlns="http://www.w3.org/2000/svg" xmlns:xlink="http://www.w3.org/1999/xlink" x="0px" y="0px"
	 viewBox="0 0 187.8 120.7" style="enable-background:new 0 0 187.8 120.7;" xml:space="preserve">
<style type="text/css">
	.st0{fill:#FFFFFE;}
	.st1{fill:url(#SVGID_1_);}
	.st2{fill:url(#SVGID_2_);}
	.st3{fill:url(#SVGID_3_);}
	.st4{fill:url(#SVGID_4_);}
	.st5{fill:url(#SVGID_5_);}
</style>
<g>
	<g>
		<path class="st0" d="M80.2,57.6c-1.3,26.6-5.3,49.7-10,62C66.6,106.9,65,83.6,66.3,57s57-43.8,61.8-56.1
			C131.6,13.6,81.5,31.1,80.2,57.6z"/>
		
			<linearGradient id="SVGID_1_" gradientUnits="userSpaceOnUse" x1="1443.8073" y1="185.9706" x2="1544.2083" y2="185.9706" gradientTransform="matrix(0.5918 2.835225e-02 -7.402959e-02 1.5451 -774.4014 -268.8318)">
			<stop  offset="0" style="stop-color:#1AA90D"/>
			<stop  offset="0.9987" style="stop-color:#36E52A"/>
		</linearGradient>
		<path class="st1" d="M79.6,61c-1.3,25.1-5,46.9-9.7,58.6c-3.4-12.1-5-34.1-3.8-59.2s57.5-46.4,62.1-58
			C131.7,14.4,80.9,35.9,79.6,61z"/>
	</g>
	<g>
		<path class="st0" d="M74.4,57.8c1.2,26.6-0.4,49.9-4,62.7c-4.7-12.4-8.6-35.5-9.8-62.1c-1.2-26.6-63.8-14-60.2-26.8
			C5.1,44,73.2,31.3,74.4,57.8z"/>
		
			<linearGradient id="SVGID_2_" gradientUnits="userSpaceOnUse" x1="1536.8883" y1="232.6597" x2="1681.0787" y2="232.6597" gradientTransform="matrix(0.4924 -2.220819e-02 7.137571e-02 1.5828 -771.4219 -256.7063)">
			<stop  offset="0" style="stop-color:#1AA90D"/>
			<stop  offset="0.9987" style="stop-color:#36E52A"/>
		</linearGradient>
		<path class="st2" d="M72.5,62.1c1.3,34,0,46.3-2.6,58.1c-3.8-11.5-6.9-33-8.1-57.6S-4.6,42.9,0.3,31.6C4,42,71.5,36,72.5,62.1z"/>
	</g>
	<g>
		<path class="st0" d="M65.1,57.9c5.2,26.1,6.9,49.5,5.3,62.6c-6.5-11.6-13.8-34-18.9-60.1S8.8,13.1,10.4,0
			C16.9,11.6,59.9,31.8,65.1,57.9z"/>
		
			<linearGradient id="SVGID_3_" gradientUnits="userSpaceOnUse" x1="1768.2633" y1="301.7036" x2="1852.1736" y2="301.7036" gradientTransform="matrix(0.5077 -9.637878e-02 0.3136 1.6523 -969.5618 -262.2969)">
			<stop  offset="0" style="stop-color:#1AA90D"/>
			<stop  offset="0.9987" style="stop-color:#36E52A"/>
		</linearGradient>
		<path class="st3" d="M65.9,60.1c4.9,24.6,7,46.4,6.1,58.6c-5.5-11-11.8-32.1-16.7-56.7S10.8,17.8,11.6,5.6
			C17.1,16.7,61.1,35.6,65.9,60.1z"/>
	</g>
	<g>
		<g>
			<path class="st0" d="M91,59.3c-5.7,26-13.5,48.2-20.2,59.7c-1.3-13.1,1-36.4,6.7-62.4c5.7-26,77.1-26.2,83.9-37.6
				C162.7,32,96.8,33.3,91,59.3z"/>
		</g>
		
			<linearGradient id="SVGID_4_" gradientUnits="userSpaceOnUse" x1="1246.0533" y1="297.2166" x2="1367.5599" y2="297.2166" gradientTransform="matrix(0.5958 0.1262 -0.3685 1.7396 -555.9338 -612.5066)">
			<stop  offset="0" style="stop-color:#1AA90D"/>
			<stop  offset="0.9987" style="stop-color:#36E52A"/>
		</linearGradient>
		<path class="st4" d="M88.4,64.6c-5.3,24.2-12.3,44.9-18.3,55.6c-0.9-12.1,1.4-33.8,6.7-58s78.5-31.7,84.5-42.5
			C162.3,31.9,93.8,40.4,88.4,64.6z"/>
	</g>
	<g>
		<path class="st0" d="M85.2,59.2c1.2,26.6-8.6,49.2-14.1,61.3c-2.7-12.9-2.7-36.3,0.4-62.8C74.5,31.3,182.2,88.1,187.7,76
			C190.4,88.9,84.1,34.3,85.2,59.2z"/>
		
			<linearGradient id="SVGID_5_" gradientUnits="userSpaceOnUse" x1="1350.7788" y1="385.2026" x2="1542.6031" y2="385.2026" gradientTransform="matrix(0.6052 6.809159e-02 -0.2149 1.9102 -665.3813 -742.8231)">
			<stop  offset="0" style="stop-color:#1AA90D"/>
			<stop  offset="0.9987" style="stop-color:#36E52A"/>
		</linearGradient>
		<path class="st5" d="M82.7,64c-2.9,24.4-7.5,45.5-12.1,56.7c-1.9-11.9,1-33.3,1.3-57.9C72.2,30,181.3,81.9,187.7,76.4
			C189.6,88.3,85.5,39.6,82.7,64z"/>
	</g>
</g>
</svg>
