<?xml version="1.0" encoding="utf-8"?>
<!-- Generator: Adobe Illustrator 23.0.4, SVG Export Plug-In . SVG Version: 6.00 Build 0)  -->
<svg version="1.1" id="Layer_1" xmlns="http://www.w3.org/2000/svg" xmlns:xlink="http://www.w3.org/1999/xlink" x="0px" y="0px"
	 viewBox="0 0 40.1 78" style="enable-background:new 0 0 40.1 78;" xml:space="preserve">
<style type="text/css">
	.st0{fill:url(#SVGID_1_);}
	.st1{fill:url(#SVGID_2_);}
	.st2{fill:#FFF7FF;}
	.st3{fill:#FFFFFF;}
</style>
<g>
	<linearGradient id="SVGID_1_" gradientUnits="userSpaceOnUse" x1="13.567" y1="27.7407" x2="27.7136" y2="27.7407">
		<stop  offset="0" style="stop-color:#D99F6C"/>
		<stop  offset="0" style="stop-color:#2E6FFF"/>
		<stop  offset="1" style="stop-color:#BE231C"/>
	</linearGradient>
	<path class="st0" d="M20.6,55.5L20.6,55.5c-3.9,0-7.1-3.2-7.1-7.1V7.1c0-3.9,3.2-7.1,7.1-7.1h0c3.9,0,7.1,3.2,7.1,7.1v41.3
		C27.7,52.3,24.5,55.5,20.6,55.5z"/>
	<linearGradient id="SVGID_2_" gradientUnits="userSpaceOnUse" x1="0" y1="57.932" x2="40.0791" y2="57.932">
		<stop  offset="0" style="stop-color:#2E6FFF"/>
		<stop  offset="1" style="stop-color:#BE231C"/>
	</linearGradient>
	<circle class="st1" cx="20" cy="57.9" r="20"/>
	<path class="st2" d="M23.2,33.8L23.2,33.8c-0.6,0-1-0.5-1-1v-17c0-0.6,0.5-1,1-1h0c0.6,0,1,0.5,1,1v17
		C24.2,33.3,23.8,33.8,23.2,33.8z"/>
	<path class="st3" d="M27.2,71.9L27.2,71.9c-0.4-0.4-0.4-1.1,0-1.4l4.9-4.9c0.4-0.4,1.1-0.4,1.4,0h0c0.4,0.4,0.4,1.1,0,1.4l-4.9,4.9
		C28.3,72.3,27.6,72.3,27.2,71.9z"/>
</g>
</svg>
